<?xml version="1.0" encoding="utf-8"?>
<!-- Generator: Adobe Illustrator 22.1.0, SVG Export Plug-In . SVG Version: 6.00 Build 0)  -->
<svg version="1.1" id="Regular" xmlns="http://www.w3.org/2000/svg" xmlns:xlink="http://www.w3.org/1999/xlink" x="0px" y="0px"
	 viewBox="0 0 24 24" style="enable-background:new 0 0 24 24;" xml:space="preserve">
<title>advertising-megaphone</title>
<g>
	<path d="M16.541,23.746c-1.138,0-2.177-0.622-2.711-1.623l-0.673-1.423c-0.189,0.1-0.384,0.204-0.584,0.312l-0.347,0.188
		c-0.446,0.237-0.945,0.362-1.445,0.362c-1.101,0-2.122-0.588-2.67-1.535c-0.023-0.032-0.044-0.066-0.062-0.102
		c-0.789-1.477-0.225-3.331,1.261-4.126c5.639-3.068,6.206-3.827,8.087-6.341c0.207-0.277,0.419-0.56,0.652-0.866
		c0.141-0.185,0.364-0.296,0.596-0.296c0.021,0,0.042,0.001,0.063,0.003c0.255,0.021,0.479,0.168,0.6,0.395l4.356,8.179
		c0.12,0.225,0.118,0.493-0.006,0.717c-0.124,0.223-0.35,0.367-0.605,0.384c-0.49,0.033-0.932,0.055-1.344,0.076
		c-2.309,0.115-3.611,0.18-7.216,1.967l0.678,1.434c0.26,0.485,0.787,0.797,1.367,0.797c0.255,0,0.51-0.064,0.735-0.184
		c0.108-0.058,0.23-0.088,0.352-0.088c0.278,0,0.532,0.152,0.663,0.398c0.194,0.365,0.055,0.82-0.31,1.014
		C17.535,23.622,17.038,23.746,16.541,23.746z M9.347,19.169c0.014,0.021,0.026,0.042,0.038,0.063
		c0.275,0.512,0.809,0.83,1.394,0.83c0.256,0,0.51-0.064,0.737-0.184l0.344-0.187c0.225-0.121,0.443-0.237,0.655-0.349l-1.349-2.855
		c-0.358,0.2-0.738,0.409-1.144,0.63C9.287,17.511,8.99,18.425,9.347,19.169z M13.852,18.66c3.88-1.916,5.365-1.99,7.781-2.11
		c0,0,0.132-0.007,0.155-0.008l-3.251-6.105c-1.589,2.123-2.382,3.149-6.064,5.305L13.852,18.66z"/>
	<path d="M5.486,13.997c-1.241,0-2.25-1.009-2.25-2.25V6.462L1.488,8.036C1.35,8.16,1.172,8.229,0.986,8.229
		c-0.212,0-0.415-0.09-0.557-0.248C0.152,7.673,0.177,7.198,0.484,6.922l6.493-5.847c0.415-0.373,0.95-0.579,1.506-0.579
		s1.09,0.206,1.505,0.579l3.748,3.372v-2.45c0-0.414,0.336-0.75,0.75-0.75s0.75,0.336,0.75,0.75v3.799l1.251,1.126
		c0.308,0.276,0.333,0.752,0.056,1.059c-0.142,0.158-0.345,0.249-0.558,0.249c-0.186,0-0.364-0.068-0.502-0.193l-1.748-1.573v3.783
		c0,0.414-0.336,0.75-0.75,0.75s-0.75-0.336-0.75-0.75V5.114L8.985,2.189C8.846,2.065,8.668,1.996,8.483,1.996
		S8.12,2.065,7.981,2.189L4.736,5.111v6.635c0,0.414,0.336,0.75,0.75,0.75h4.5c0.414,0,0.75,0.336,0.75,0.75s-0.336,0.75-0.75,0.75
		H5.486z"/>
</g>
</svg>
