<?xml version="1.0" encoding="utf-8"?>
<!-- Generator: Adobe Illustrator 22.1.0, SVG Export Plug-In . SVG Version: 6.00 Build 0)  -->
<svg version="1.1" id="Regular" xmlns="http://www.w3.org/2000/svg" xmlns:xlink="http://www.w3.org/1999/xlink" x="0px" y="0px"
	 viewBox="0 0 24 24" style="enable-background:new 0 0 24 24;" xml:space="preserve">
<title>real-estate-search-building</title>
<g>
	<path d="M12,24c-2.592,0-5.06-0.817-7.14-2.362c-0.048-0.029-0.091-0.062-0.13-0.099C1.724,19.243,0,15.768,0,12
		C0,5.383,5.383,0,12,0c6.617,0,12,5.383,12,12c0,4.092-2.061,7.861-5.514,10.088c-0.052,0.045-0.11,0.082-0.172,0.111
		C16.416,23.377,14.234,24,12,24z M6,20.609c1.556,1.088,3.36,1.727,5.25,1.861V15c0-0.414-0.336-0.75-0.75-0.75H6.75
		C6.336,14.25,6,14.586,6,15v0.75h3c0.414,0,0.75,0.336,0.75,0.75S9.414,17.25,9,17.25H6V20.609z M11.25,12.879
		c0.885,0.314,1.5,1.161,1.5,2.121v7.47c1.586-0.113,3.13-0.586,4.5-1.38v-6.839h-3c-0.414,0-0.75-0.336-0.75-0.75
		s0.336-0.75,0.75-0.75h3v-1.5h-1.5c-0.414,0-0.75-0.336-0.75-0.75s0.336-0.75,0.75-0.75h1.5V6.784l-5.828,4.148
		c-0.052,0.037-0.11,0.068-0.171,0.091L11.25,12.879z M17.25,5.253c0.399,0,0.774,0.155,1.057,0.436
		c0.284,0.282,0.441,0.659,0.443,1.059v13.284c2.361-1.989,3.75-4.939,3.75-8.033c0-5.79-4.71-10.5-10.5-10.5
		C6.21,1.5,1.5,6.21,1.5,12c0,2.75,1.084,5.379,3,7.337V15c0-1.241,1.009-2.25,2.25-2.25h3v-1.729
		c0.002-0.585,0.341-1.113,0.868-1.358L12,8.68V6.001c0-0.414,0.336-0.75,0.75-0.75s0.75,0.336,0.75,0.75v1.611l3.052-2.172
		c0.054-0.038,0.112-0.069,0.172-0.091c0.167-0.063,0.343-0.095,0.522-0.095C17.246,5.253,17.25,5.253,17.25,5.253z"/>
</g>
</svg>
