<?xml version="1.0" encoding="utf-8"?>
<!-- Generator: Adobe Illustrator 22.1.0, SVG Export Plug-In . SVG Version: 6.00 Build 0)  -->
<svg version="1.1" id="Regular" xmlns="http://www.w3.org/2000/svg" xmlns:xlink="http://www.w3.org/1999/xlink" x="0px" y="0px"
	 viewBox="0 0 24 24" style="enable-background:new 0 0 24 24;" xml:space="preserve">
<title>real-estate-search-house-1</title>
<g>
	<path d="M16.5,17.25c-0.414,0-0.75-0.336-0.75-0.75V9.868l-3.251-2.925C12.36,6.818,12.182,6.75,11.997,6.75
		s-0.363,0.069-0.502,0.193L8.25,9.865V16.5c0,0.414-0.336,0.75-0.75,0.75s-0.75-0.336-0.75-0.75v-5.285l-1.748,1.574
		c-0.139,0.125-0.317,0.193-0.502,0.193c-0.212,0-0.416-0.09-0.557-0.248c-0.277-0.307-0.252-0.782,0.056-1.059l6.494-5.847
		c0.415-0.373,0.949-0.579,1.505-0.579s1.09,0.205,1.505,0.578c0,0,3.512,3.159,3.517,3.164l2.983,2.683
		c0.307,0.276,0.333,0.752,0.056,1.059c-0.142,0.158-0.345,0.249-0.558,0.249c-0.186,0-0.364-0.069-0.502-0.193l-1.748-1.573V16.5
		C17.25,16.914,16.914,17.25,16.5,17.25z"/>
	<path d="M12,24C5.383,24,0,18.617,0,12C0,5.383,5.383,0,12,0c6.617,0,12,5.383,12,12C24,18.617,18.617,24,12,24z M12,1.5
		C6.21,1.5,1.5,6.21,1.5,12c0,5.79,4.71,10.5,10.5,10.5c5.79,0,10.5-4.71,10.5-10.5C22.5,6.21,17.79,1.5,12,1.5z"/>
	<path d="M12,13.5c-1.241,0-2.25-1.009-2.25-2.25C9.75,10.009,10.759,9,12,9c1.241,0,2.25,1.009,2.25,2.25
		C14.25,12.491,13.241,13.5,12,13.5z M12,10.5c-0.414,0-0.75,0.336-0.75,0.75S11.586,12,12,12s0.75-0.336,0.75-0.75
		S12.414,10.5,12,10.5z"/>
</g>
</svg>
