<?xml version="1.0" encoding="utf-8"?>
<!-- Generator: Adobe Illustrator 22.1.0, SVG Export Plug-In . SVG Version: 6.00 Build 0)  -->
<svg version="1.1" id="Regular" xmlns="http://www.w3.org/2000/svg" xmlns:xlink="http://www.w3.org/1999/xlink" x="0px" y="0px"
	 viewBox="0 0 24 24" style="enable-background:new 0 0 24 24;" xml:space="preserve">
<title>real-estate-search-house</title>
<g>
	<path d="M17.25,18c-0.414,0-0.75-0.336-0.75-0.75v-5.958l-4.001-3.599C12.36,7.568,12.182,7.5,11.997,7.5s-0.363,0.069-0.502,0.193
		L7.5,11.29v5.96C7.5,17.664,7.164,18,6.75,18S6,17.664,6,17.25v-4.609l-0.998,0.899c-0.138,0.124-0.316,0.193-0.502,0.193
		c-0.212,0-0.415-0.09-0.557-0.248c-0.276-0.307-0.252-0.782,0.055-1.059l6.494-5.847c0.415-0.373,0.949-0.579,1.505-0.579
		s1.09,0.205,1.505,0.578l3.749,3.372V7.5c0-0.414,0.336-0.75,0.75-0.75s0.75,0.336,0.75,0.75v3.798l1.251,1.126
		c0.149,0.134,0.237,0.318,0.248,0.518c0.01,0.2-0.057,0.392-0.191,0.541c-0.142,0.158-0.345,0.248-0.558,0.248
		c-0.186,0-0.364-0.068-0.501-0.193L18,12.641v4.609C18,17.664,17.664,18,17.25,18z"/>
	<path d="M12,24C5.383,24,0,18.617,0,12C0,5.383,5.383,0,12,0c6.617,0,12,5.383,12,12C24,18.617,18.617,24,12,24z M12,1.5
		C6.21,1.5,1.5,6.21,1.5,12c0,5.79,4.71,10.5,10.5,10.5c5.79,0,10.5-4.71,10.5-10.5C22.5,6.21,17.79,1.5,12,1.5z"/>
	<path d="M12,14.25c-1.241,0-2.25-1.009-2.25-2.25c0-1.241,1.009-2.25,2.25-2.25c1.241,0,2.25,1.009,2.25,2.25
		C14.25,13.241,13.241,14.25,12,14.25z M12,11.25c-0.414,0-0.75,0.336-0.75,0.75s0.336,0.75,0.75,0.75s0.75-0.336,0.75-0.75
		S12.414,11.25,12,11.25z"/>
</g>
</svg>
