<?xml version="1.0" encoding="utf-8"?>
<!-- Generator: Adobe Illustrator 22.1.0, SVG Export Plug-In . SVG Version: 6.00 Build 0)  -->
<svg version="1.1" id="Layer_1" xmlns="http://www.w3.org/2000/svg" xmlns:xlink="http://www.w3.org/1999/xlink" x="0px" y="0px"
	 viewBox="0 0 24 24" style="enable-background:new 0 0 24 24;" xml:space="preserve">
<title>house-3</title>
<g>
	<path d="M14.25,19.5c-0.414,0-0.75-0.336-0.75-0.75v-4.5c0-0.414,0.336-0.75,0.75-0.75h4.5c0.414,0,0.75,0.336,0.75,0.75v4.5
		c0,0.414-0.336,0.75-0.75,0.75H14.25z M18,18v-3h-3v3H18z"/>
	<path d="M0.75,22.5C0.336,22.5,0,22.164,0,21.75S0.336,21,0.75,21H1.5V10.88l-0.306,0.225C1.064,11.2,0.91,11.25,0.75,11.25
		c-0.238,0-0.464-0.115-0.605-0.307c-0.119-0.161-0.167-0.359-0.137-0.558c0.031-0.198,0.136-0.372,0.298-0.491l10.363-7.6
		C11.06,2.009,11.52,1.858,12,1.858s0.94,0.151,1.33,0.437L15,3.52V2.25c0-0.414,0.336-0.75,0.75-0.75h4.5
		C20.663,1.5,21,1.836,21,2.25v5.67l2.693,1.975c0.333,0.244,0.406,0.715,0.162,1.048c-0.141,0.192-0.367,0.307-0.605,0.307
		c-0.161,0-0.314-0.05-0.444-0.146L22.5,10.88V21h0.75c0.414,0,0.75,0.336,0.75,0.75s-0.336,0.75-0.75,0.75H0.75z M21,21V9.78
		l-8.556-6.275C12.313,3.409,12.159,3.359,12,3.359c-0.16,0-0.313,0.051-0.444,0.146L3,9.78V21h3v-5.25
		c0-1.241,1.009-2.25,2.25-2.25h1.5c1.241,0,2.25,1.009,2.25,2.25V21H21z M10.5,21v-5.25c0-0.414-0.336-0.75-0.75-0.75h-1.5
		c-0.414,0-0.75,0.336-0.75,0.75V21H10.5z M19.5,6.82V3h-3v1.62L19.5,6.82z"/>
</g>
</svg>
