<?xml version="1.0" encoding="utf-8"?>
<!-- Generator: Adobe Illustrator 22.1.0, SVG Export Plug-In . SVG Version: 6.00 Build 0)  -->
<svg version="1.1" id="Layer_1" xmlns="http://www.w3.org/2000/svg" xmlns:xlink="http://www.w3.org/1999/xlink" x="0px" y="0px"
	 viewBox="0 0 24 24" style="enable-background:new 0 0 24 24;" xml:space="preserve">
<title>house-2</title>
<g>
	<path d="M0.751,23.25c-0.414,0-0.75-0.336-0.75-0.75s0.336-0.75,0.75-0.75h1.5v-10.5c-0.348,0-0.696-0.082-1.007-0.238
		c-1.109-0.555-1.561-1.909-1.006-3.019c0.02-0.039,0.043-0.077,0.069-0.112l2.694-3.63V3c0-1.241,1.009-2.25,2.25-2.25h13.5
		c1.241,0,2.25,1.009,2.25,2.25v1.252l2.694,3.63c0.026,0.034,0.049,0.072,0.069,0.112c0.156,0.312,0.238,0.66,0.238,1.008
		c0,0.601-0.235,1.166-0.659,1.59s-0.99,0.659-1.59,0.659l0,10.5h1.5c0.414,0,0.75,0.336,0.75,0.75s-0.336,0.75-0.75,0.75H0.751z
		 M20.251,21.75v-10.5h-16.5v10.5h4.5v-4.5c0-2.068,1.682-3.75,3.75-3.75s3.75,1.682,3.75,3.75v4.5H20.251z M14.251,21.75v-4.5
		c0-1.241-1.009-2.25-2.25-2.25c-1.241,0-2.25,1.009-2.25,2.25v4.5H14.251z M1.557,8.714C1.409,9.073,1.565,9.496,1.915,9.671
		C2.018,9.723,2.134,9.75,2.25,9.75h19.501c0.2,0,0.389-0.078,0.531-0.219s0.22-0.33,0.22-0.53c0-0.097-0.02-0.196-0.057-0.286
		L19.873,5.25H4.128L1.557,8.714z M19.501,3.75V3c0-0.414-0.336-0.75-0.75-0.75h-13.5c-0.414,0-0.75,0.336-0.75,0.75v0.75H19.501z"
		/>
</g>
</svg>
