<?xml version="1.0" encoding="utf-8"?>
<!-- Generator: Adobe Illustrator 22.1.0, SVG Export Plug-In . SVG Version: 6.00 Build 0)  -->
<svg version="1.1" id="Layer_1" xmlns="http://www.w3.org/2000/svg" xmlns:xlink="http://www.w3.org/1999/xlink" x="0px" y="0px"
	 viewBox="0 0 24 24" style="enable-background:new 0 0 24 24;" xml:space="preserve">
<title>house-1</title>
<g>
	<path d="M14.25,24c-0.414,0-0.75-0.336-0.75-0.75v-6c0-0.414-0.336-0.75-0.75-0.75h-1.5c-0.414,0-0.75,0.336-0.75,0.75v6
		c0,0.414-0.336,0.75-0.75,0.75h-4.5C4.009,24,3,22.991,3,21.75V18c0-0.414,0.336-0.75,0.75-0.75S4.5,17.587,4.5,18v3.75
		c0,0.414,0.336,0.75,0.75,0.75H9v-5.25C9,16.009,10.009,15,11.25,15h1.5c1.241,0,2.25,1.009,2.25,2.25v5.25h3.75
		c0.414,0,0.75-0.336,0.75-0.75V18c0-0.414,0.336-0.75,0.75-0.75S21,17.587,21,18v3.75c0,1.241-1.009,2.25-2.25,2.25H14.25z"/>
	<path d="M23.25,17.25c-0.2,0-0.389-0.078-0.53-0.22L12.531,6.841C12.389,6.7,12.201,6.622,12,6.622
		c-0.201,0-0.389,0.078-0.53,0.219L1.28,17.03c-0.142,0.142-0.33,0.22-0.53,0.22s-0.389-0.078-0.53-0.22C0.078,16.889,0,16.7,0,16.5
		s0.078-0.389,0.22-0.53L10.409,5.781c0.424-0.425,0.99-0.659,1.591-0.659c0.601,0,1.166,0.234,1.59,0.658l2.207,2.207
		C15.905,7.703,16.179,7.5,16.5,7.5h3.75C20.664,7.5,21,7.837,21,8.25v4.939l2.78,2.78C23.922,16.112,24,16.3,24,16.5
		s-0.078,0.389-0.22,0.53S23.45,17.25,23.25,17.25z M19.5,11.69V9h-2.25V9.44L19.5,11.69z"/>
	<path d="M16.628,5.458c-0.163,0-0.319-0.052-0.45-0.15c-0.16-0.12-0.264-0.295-0.292-0.494s0.022-0.396,0.142-0.556l0.407-0.543
		c0.099-0.13,0.08-0.31-0.041-0.411c-0.739-0.618-0.859-1.701-0.275-2.467L16.522,0.3C16.663,0.112,16.888,0,17.123,0
		c0.163,0,0.319,0.052,0.449,0.15c0.16,0.12,0.264,0.295,0.293,0.494S17.842,1.04,17.722,1.2l-0.407,0.543
		c-0.099,0.13-0.08,0.31,0.041,0.411c0.739,0.618,0.859,1.701,0.275,2.467l-0.403,0.537C17.087,5.346,16.863,5.458,16.628,5.458z"/>
	<path d="M20.378,5.458c-0.163,0-0.319-0.052-0.45-0.15c-0.16-0.12-0.264-0.295-0.292-0.494s0.022-0.396,0.142-0.556l0.407-0.543
		c0.099-0.13,0.08-0.31-0.041-0.411c-0.739-0.618-0.859-1.701-0.275-2.467L20.272,0.3C20.413,0.112,20.638,0,20.873,0
		c0.163,0,0.319,0.052,0.449,0.15c0.16,0.12,0.264,0.295,0.293,0.494S21.592,1.04,21.472,1.2l-0.407,0.543
		c-0.099,0.13-0.08,0.31,0.041,0.411c0.739,0.618,0.859,1.701,0.275,2.467l-0.403,0.537C20.837,5.346,20.613,5.458,20.378,5.458z"/>
</g>
</svg>
