<?xml version="1.0" encoding="utf-8"?>
<!-- Generator: Adobe Illustrator 22.1.0, SVG Export Plug-In . SVG Version: 6.00 Build 0)  -->
<svg version="1.1" id="Layer_1" xmlns="http://www.w3.org/2000/svg" xmlns:xlink="http://www.w3.org/1999/xlink" x="0px" y="0px"
	 viewBox="0 0 24 24" style="enable-background:new 0 0 24 24;" xml:space="preserve">
<title>house</title>
<g>
	<path d="M23.25,13.19c-0.2,0-0.389-0.078-0.53-0.22L12.536,2.786C12.389,2.64,12.201,2.562,12,2.562
		c-0.201,0-0.389,0.078-0.531,0.219L1.28,12.97c-0.142,0.142-0.33,0.22-0.53,0.22s-0.389-0.078-0.53-0.22
		C0.078,12.829,0,12.64,0,12.44c0-0.2,0.078-0.389,0.22-0.53L10.409,1.721C10.833,1.296,11.398,1.062,12,1.062
		c0.598,0,1.161,0.231,1.584,0.651l2.214,2.214C15.904,3.643,16.179,3.44,16.5,3.44h3.75c0.414,0,0.75,0.336,0.75,0.75V9.13
		l2.78,2.78c0.142,0.142,0.22,0.33,0.22,0.53c0,0.2-0.078,0.389-0.22,0.53S23.45,13.19,23.25,13.19z M19.5,7.63V4.94h-2.25V5.38
		L19.5,7.63z"/>
	<path d="M1.5,22.94c-0.414,0-0.75-0.336-0.75-0.75s0.336-0.75,0.75-0.75H3v-7.5c0-0.414,0.336-0.75,0.75-0.75s0.75,0.336,0.75,0.75
		v7.5H9v-5.25c0-1.241,1.009-2.25,2.25-2.25h1.5c1.241,0,2.25,1.009,2.25,2.25v5.25h4.5v-7.5c0-0.414,0.336-0.75,0.75-0.75
		S21,13.527,21,13.94v7.5h1.5c0.414,0,0.75,0.336,0.75,0.75s-0.336,0.75-0.75,0.75H1.5z M13.5,21.44v-5.25
		c0-0.414-0.336-0.75-0.75-0.75h-1.5c-0.414,0-0.75,0.336-0.75,0.75v5.25H13.5z"/>
</g>
</svg>
