<svg id="Light" xmlns="http://www.w3.org/2000/svg" viewBox="0 0 24 24"><defs><style>.cls-1{fill:none;stroke:currentColor;stroke-linecap:round;stroke-linejoin:round;}</style></defs><title>ambulance-car</title><circle class="cls-1" cx="5" cy="19.5" r="2"/><circle class="cls-1" cx="18.999" cy="19.5" r="2"/><path class="cls-1" d="M3,19.5H1A.5.5,0,0,1,.5,19V14.828a2,2,0,0,1,.586-1.414L2.5,12,4.715,8.014A1,1,0,0,1,5.589,7.5H9.5v-2H23a.5.5,0,0,1,.5.5V19a.5.5,0,0,1-.5.5H21"/><line class="cls-1" x1="7" y1="19.5" x2="16.999" y2="19.5"/><line class="cls-1" x1="9.499" y1="7.5" x2="9.499" y2="17.5"/><line class="cls-1" x1="0.5" y1="17.5" x2="23.499" y2="17.5"/><path class="cls-1" d="M13.5,4.5a2,2,0,0,0-4,0v1h4Z"/><path class="cls-1" d="M19.5,11a.5.5,0,0,0-.5-.5H17.5V9a.5.5,0,0,0-.5-.5H16a.5.5,0,0,0-.5.5v1.5H14a.5.5,0,0,0-.5.5v1a.5.5,0,0,0,.5.5h1.5V14a.5.5,0,0,0,.5.5h1a.5.5,0,0,0,.5-.5V12.5H19a.5.5,0,0,0,.5-.5Z"/><line class="cls-1" x1="2.5" y1="12" x2="9.5" y2="12"/></svg>