<svg id="Light" xmlns="http://www.w3.org/2000/svg" viewBox="0 0 24 24"><defs><style>.cls-1{fill:none;stroke:currentColor;stroke-linecap:round;stroke-linejoin:round;}</style></defs><title>ambulance-human</title><rect class="cls-1" x="0.5" y="2.5" width="12" height="19" rx="1" ry="1"/><path class="cls-1" d="M23.5,7a.5.5,0,0,0-.5-.5H20.5V4a.5.5,0,0,0-.5-.5H18a.5.5,0,0,0-.5.5V6.5H15a.5.5,0,0,0-.5.5V9a.5.5,0,0,0,.5.5h2.5V12a.5.5,0,0,0,.5.5h2a.5.5,0,0,0,.5-.5V9.5H23a.5.5,0,0,0,.5-.5Z"/><line class="cls-1" x1="2.5" y1="2.5" x2="2.5" y2="0.5"/><line class="cls-1" x1="10.5" y1="2.5" x2="10.5" y2="0.5"/><line class="cls-1" x1="2.5" y1="21.5" x2="2.5" y2="23.5"/><line class="cls-1" x1="10.5" y1="21.5" x2="10.5" y2="23.5"/><circle class="cls-1" cx="6.5" cy="6.75" r="2.25"/><path class="cls-1" d="M6.5,10a3,3,0,0,0-3,3v2H5l.5,4.5h2L8,15H9.5V13A3,3,0,0,0,6.5,10Z"/></svg>