<?xml version="1.0" encoding="utf-8"?>
<!-- Generator: Adobe Illustrator 22.1.0, SVG Export Plug-In . SVG Version: 6.00 Build 0)  -->
<svg version="1.1" id="Layer_1" xmlns="http://www.w3.org/2000/svg" xmlns:xlink="http://www.w3.org/1999/xlink" x="0px" y="0px"
	 viewBox="0 0 24 24" style="enable-background:new 0 0 24 24;" xml:space="preserve">
<title>network-user</title>
<g>
	<path d="M11.25,23.25c-4.293,0-8.271-2.504-10.14-6.38c-0.02-0.036-0.037-0.073-0.052-0.113C0.356,15.259,0,13.658,0,12
		c0-1.658,0.356-3.259,1.058-4.757C1.073,7.203,1.09,7.165,1.11,7.129C2.979,3.253,6.958,0.75,11.25,0.75
		c0.012,0,0.028,0.001,0.042,0.002c0.023,0.001,0.044,0.004,0.065,0.007c0.029,0.004,0.05,0.008,0.07,0.013
		c0.018,0.004,0.04,0.011,0.062,0.018c0.031,0.011,0.052,0.019,0.073,0.028c0.021,0.01,0.042,0.021,0.062,0.033
		c0.021,0.012,0.042,0.024,0.061,0.038s0.036,0.027,0.052,0.041c0.024,0.021,0.042,0.037,0.059,0.055
		c0.016,0.017,0.028,0.032,0.04,0.047c0.017,0.022,0.031,0.041,0.044,0.06c0.008,0.012,0.017,0.025,0.023,0.035
		c0.007,0.012,0.016,0.03,0.022,0.045c0.011,0.023,0.02,0.043,0.028,0.064c0.009,0.025,0.016,0.047,0.022,0.07
		c0.006,0.023,0.011,0.046,0.015,0.07c0.005,0.028,0.007,0.054,0.009,0.081C12,1.477,12,1.483,12,1.5
		c0,0.015-0.001,0.029-0.002,0.044c-0.001,0.019-0.004,0.041-0.007,0.063c-0.003,0.022-0.007,0.046-0.013,0.069
		c-0.004,0.019-0.011,0.04-0.018,0.062c-0.011,0.033-0.019,0.053-0.028,0.073c-0.01,0.022-0.021,0.041-0.032,0.06
		c-0.016,0.028-0.028,0.046-0.04,0.064c-0.012,0.017-0.027,0.035-0.042,0.053c-0.019,0.022-0.035,0.04-0.053,0.057
		c-0.016,0.015-0.033,0.029-0.05,0.042c-0.02,0.016-0.038,0.029-0.057,0.041c-0.011,0.008-0.023,0.016-0.033,0.021
		C11.6,2.164,9.247,3.575,7.824,6.75h3.426C11.664,6.75,12,7.086,12,7.5s-0.336,0.75-0.75,0.75H7.269
		C6.925,9.426,6.75,10.686,6.75,12c0,1.316,0.174,2.576,0.517,3.75h3.983c0.414,0,0.75,0.336,0.75,0.75s-0.336,0.75-0.75,0.75H7.82
		c1.423,3.185,3.778,4.585,3.803,4.599c0.01,0.006,0.022,0.014,0.034,0.022c0.017,0.011,0.034,0.024,0.052,0.037
		c0.017,0.013,0.036,0.028,0.053,0.044c0.021,0.02,0.037,0.038,0.053,0.055c0.014,0.016,0.03,0.035,0.044,0.055
		c0.012,0.017,0.025,0.037,0.036,0.057c0.017,0.029,0.026,0.047,0.035,0.065c0.012,0.026,0.021,0.05,0.029,0.074
		c0.006,0.017,0.013,0.039,0.019,0.062c0.006,0.027,0.01,0.051,0.014,0.075c0.003,0.018,0.005,0.039,0.006,0.061
		C11.999,22.472,12,22.488,12,22.5c0,0.018-0.002,0.047-0.005,0.064c0.001,0.004-0.002,0.03-0.006,0.057
		c-0.004,0.023-0.009,0.046-0.015,0.07c-0.007,0.027-0.014,0.048-0.022,0.069c-0.01,0.028-0.021,0.052-0.033,0.075
		c-0.007,0.017-0.01,0.023-0.02,0.04c-0.006,0.011-0.013,0.022-0.021,0.032c-0.029,0.045-0.062,0.087-0.099,0.124
		c-0.009,0.009-0.018,0.018-0.029,0.026c-0.036,0.032-0.073,0.059-0.112,0.083c-0.016,0.01-0.03,0.017-0.045,0.025
		c-0.038,0.02-0.08,0.037-0.124,0.05c-0.005,0.002-0.033,0.01-0.038,0.011C11.365,23.243,11.307,23.25,11.25,23.25L11.25,23.25z
		 M3.039,17.25c1.33,2.072,3.399,3.568,5.759,4.184c-0.918-0.968-1.915-2.337-2.621-4.184H3.039z M5.705,15.75
		C5.403,14.562,5.25,13.303,5.25,12c0-1.303,0.153-2.562,0.455-3.75H2.253C1.753,9.442,1.5,10.703,1.5,12
		c0,1.297,0.253,2.558,0.753,3.75H5.705z M6.177,6.75C6.883,4.903,7.88,3.534,8.798,2.566C6.438,3.182,4.369,4.678,3.039,6.75H6.177
		z"/>
	<path d="M18.75,8.25C16.682,8.25,15,6.568,15,4.5s1.682-3.75,3.75-3.75S22.5,2.432,22.5,4.5S20.818,8.25,18.75,8.25z M18.75,2.25
		c-1.241,0-2.25,1.009-2.25,2.25s1.009,2.25,2.25,2.25S21,5.741,21,4.5S19.991,2.25,18.75,2.25z"/>
	<path d="M18,23.25c-1.241,0-2.25-1.009-2.25-2.25v-2.25c-1.241,0-2.25-1.009-2.25-2.25v-3c0.001-1.692,0.826-3.286,2.206-4.266
		c0.127-0.091,0.277-0.139,0.434-0.139c0.242,0,0.47,0.117,0.61,0.314l2,2.8l2-2.8c0.141-0.197,0.369-0.314,0.611-0.314
		c0.156,0,0.306,0.048,0.434,0.138c1.38,0.979,2.204,2.573,2.206,4.265V16.5c0,1.241-1.009,2.25-2.25,2.25V21
		c0,1.241-1.009,2.25-2.25,2.25H18z M16.008,10.952c-0.644,0.688-1.007,1.596-1.008,2.549V16.5c0,0.414,0.336,0.75,0.75,0.75h0.75
		c0.414,0,0.75,0.336,0.75,0.75v3c0,0.414,0.336,0.75,0.75,0.75h1.5c0.414,0,0.75-0.336,0.75-0.75v-3c0-0.414,0.336-0.75,0.75-0.75
		h0.75c0.414,0,0.75-0.336,0.75-0.75v-3c-0.001-0.952-0.364-1.86-1.008-2.548l-2.132,2.984c-0.136,0.191-0.365,0.304-0.61,0.304
		s-0.474-0.114-0.61-0.304L16.008,10.952z"/>
</g>
</svg>
