<?xml version="1.0" encoding="utf-8"?>
<!-- Generator: Adobe Illustrator 22.1.0, SVG Export Plug-In . SVG Version: 6.00 Build 0)  -->
<svg version="1.1" id="Regular" xmlns="http://www.w3.org/2000/svg" xmlns:xlink="http://www.w3.org/1999/xlink" x="0px" y="0px"
	 viewBox="0 0 24 24" style="enable-background:new 0 0 24 24;" xml:space="preserve">
<title>bird-house</title>
<g>
	<path d="M12.013,24c-0.414,0-0.75-0.336-0.75-0.75V21H7.419c-1.14,0-2.1-0.853-2.235-1.985L4.082,9.756l-2.04,2.026
		C1.9,11.923,1.712,12,1.513,12c-0.201,0-0.39-0.078-0.532-0.221c-0.292-0.294-0.29-0.77,0.003-1.061l10.574-10.5
		c0.126-0.125,0.293-0.198,0.496-0.216C12.066,0,12.09,0,12.09,0c0.2,0.001,0.388,0.079,0.529,0.221l10.426,10.5
		c0.291,0.293,0.29,0.769-0.004,1.061C22.901,11.923,22.713,12,22.513,12c-0.201,0-0.39-0.079-0.532-0.221L20.08,9.864l-1.092,9.152
		C18.855,20.147,17.894,21,16.755,21h-3.992v2.25C12.763,23.664,12.427,24,12.013,24z M6.674,18.838
		C6.719,19.216,7.039,19.5,7.419,19.5h9.337c0.379,0,0.699-0.284,0.744-0.661l1.232-10.333l-6.648-6.695l-6.65,6.604L6.674,18.838z"
		/>
	<path d="M12.013,16.5c-2.068,0-3.75-1.682-3.75-3.75c0-2.068,1.682-3.75,3.75-3.75s3.75,1.682,3.75,3.75
		C15.763,14.818,14.081,16.5,12.013,16.5z M12.013,10.5c-1.241,0-2.25,1.009-2.25,2.25c0,1.241,1.009,2.25,2.25,2.25
		s2.25-1.009,2.25-2.25C14.263,11.509,13.254,10.5,12.013,10.5z"/>
</g>
</svg>
