<?xml version="1.0" encoding="utf-8"?>
<!-- Generator: Adobe Illustrator 22.1.0, SVG Export Plug-In . SVG Version: 6.00 Build 0)  -->
<svg version="1.1" id="Layer_1" xmlns="http://www.w3.org/2000/svg" xmlns:xlink="http://www.w3.org/1999/xlink" x="0px" y="0px"
	 viewBox="0 0 24 24" style="enable-background:new 0 0 24 24;" xml:space="preserve">
<title>pin-2</title>
<g>
	<path d="M11.25,24c-0.414,0-0.75-0.336-0.75-0.75V10.442C7.95,10.074,6,7.857,6,5.25C6,2.355,8.355,0,11.25,0
		c2.895,0,5.25,2.355,5.25,5.25c0,2.607-1.95,4.824-4.5,5.192V23.25C12,23.664,11.664,24,11.25,24z M11.25,1.5
		C9.182,1.5,7.5,3.182,7.5,5.25S9.182,9,11.25,9C13.318,9,15,7.318,15,5.25S13.318,1.5,11.25,1.5z"/>
	<path d="M10.875,5.25c-0.044,0-0.088-0.004-0.131-0.012c-0.513-0.06-0.922-0.47-0.982-0.982C9.754,4.213,9.75,4.169,9.75,4.125
		s0.004-0.088,0.012-0.131c0.06-0.513,0.47-0.922,0.982-0.982C10.787,3.004,10.831,3,10.875,3s0.088,0.004,0.131,0.012
		c0.513,0.06,0.922,0.47,0.982,0.982C11.996,4.037,12,4.081,12,4.125s-0.004,0.088-0.011,0.131c-0.061,0.513-0.47,0.922-0.982,0.982
		C10.963,5.246,10.919,5.25,10.875,5.25z"/>
</g>
</svg>
