<svg xmlns="http://www.w3.org/2000/svg" viewBox="0 0 24 24"><defs><style>.a{fill:none;stroke:currentColor;stroke-linecap:round;stroke-linejoin:round;}</style></defs><title>landmark-pyramid</title><path class="a" d="M17.5,10.5H6.5L.954,19.743a.5.5,0,0,0,.429.757H22.617a.5.5,0,0,0,.429-.757Z"/><line class="a" x1="17.5" y1="10.5" x2="17.5" y2="7.499"/><line class="a" x1="6.5" y1="7.499" x2="6.5" y2="10.5"/><path class="a" d="M17.5,5.5V4a.5.5,0,0,0-.5-.5H7a.5.5,0,0,0-.5.5V5.5"/><path class="a" d="M8.5,5.5H6a.5.5,0,0,0-.5.5V7a.5.5,0,0,0,.5.5H18a.5.5,0,0,0,.5-.5V6a.5.5,0,0,0-.5-.5H15.5"/><line class="a" x1="15" y1="20.5" x2="13.5" y2="10.5"/><line class="a" x1="10.5" y1="10.5" x2="9" y2="20.5"/><line class="a" x1="5.3" y1="12.5" x2="8" y2="12.5"/><line class="a" x1="16" y1="12.5" x2="18.7" y2="12.5"/><line class="a" x1="4.1" y1="14.5" x2="7.5" y2="14.5"/><line class="a" x1="2.9" y1="16.5" x2="7" y2="16.5"/><line class="a" x1="1.7" y1="18.5" x2="6.5" y2="18.5"/><line class="a" x1="19.9" y1="14.5" x2="16.5" y2="14.5"/><line class="a" x1="21.1" y1="16.5" x2="17" y2="16.5"/><line class="a" x1="22.3" y1="18.5" x2="17.5" y2="18.5"/><line class="a" x1="10.5" y1="7.5" x2="10.5" y2="10.5"/><line class="a" x1="13.5" y1="10.5" x2="13.5" y2="7.5"/></svg>