<?xml version="1.0" encoding="utf-8"?>
<!-- Generator: Adobe Illustrator 22.1.0, SVG Export Plug-In . SVG Version: 6.00 Build 0)  -->
<svg version="1.1" id="Layer_1" xmlns="http://www.w3.org/2000/svg" xmlns:xlink="http://www.w3.org/1999/xlink" x="0px" y="0px"
	 viewBox="0 0 24 24" style="enable-background:new 0 0 24 24;" xml:space="preserve">
<title>legal-scale</title>
<g>
	<path d="M0.75,24C0.336,24,0,23.664,0,23.25s0.336-0.75,0.75-0.75h9c0.414,0,0.75-0.336,0.75-0.75v-3c0-0.414-0.336-0.75-0.75-0.75
		h-9C0.336,18,0,17.664,0,17.25s0.336-0.75,0.75-0.75h7.577c0.3-1.459,1.464-2.623,2.923-2.923V3H5.714l3.207,6.415
		c0.005,0.011,0.011,0.024,0.016,0.037c0.009,0.02,0.016,0.04,0.023,0.061c0.008,0.022,0.014,0.043,0.019,0.065
		C8.984,9.598,8.987,9.619,8.99,9.64c0.004,0.028,0.006,0.05,0.008,0.071C8.999,9.724,9,9.738,9,9.75c0,2.481-2.019,4.5-4.5,4.5
		S0,12.231,0,9.75c0-0.011,0.001-0.025,0.002-0.038c0.001-0.02,0.004-0.042,0.007-0.063c0.004-0.03,0.008-0.051,0.012-0.071
		C0.026,9.555,0.033,9.534,0.04,9.513c0.007-0.021,0.015-0.042,0.023-0.062c0.005-0.013,0.01-0.026,0.016-0.036L3.286,3H2.25
		C1.836,3,1.5,2.664,1.5,2.25S1.836,1.5,2.25,1.5h9V0.75C11.25,0.336,11.586,0,12,0s0.75,0.336,0.75,0.75V1.5h9
		c0.414,0,0.75,0.336,0.75,0.75S22.164,3,21.75,3h-1.036l3.207,6.415c0.005,0.011,0.011,0.024,0.016,0.037
		c0.004,0.007,0.012,0.03,0.02,0.053c0.012,0.034,0.018,0.054,0.022,0.074c0.005,0.024,0.008,0.042,0.011,0.06
		c0.005,0.034,0.007,0.056,0.008,0.075C23.999,9.725,24,9.739,24,9.75c0,2.481-2.019,4.5-4.5,4.5S15,12.231,15,9.75
		c0-0.012,0.001-0.025,0.002-0.039c0-0.01,0.003-0.033,0.006-0.055c0.005-0.037,0.008-0.055,0.012-0.073
		c0.006-0.025,0.012-0.044,0.018-0.064c0.009-0.027,0.017-0.048,0.024-0.066c0.005-0.014,0.011-0.028,0.017-0.039L18.286,3H12.75
		v10.577c1.459,0.3,2.623,1.464,2.923,2.923h6.077c1.241,0,2.25,1.009,2.25,2.25v3c0,1.241-1.009,2.25-2.25,2.25H0.75z M21.75,22.5
		c0.414,0,0.75-0.336,0.75-0.75v-3c0-0.414-0.336-0.75-0.75-0.75H19.5v4.5H21.75z M18,22.5V18h-6.129
		C11.956,18.239,12,18.491,12,18.75v3c0,0.259-0.044,0.511-0.129,0.75H18z M14.121,16.5C13.808,15.621,12.962,15,12,15
		s-1.808,0.621-2.121,1.5H14.121z M16.594,10.5c0.335,1.308,1.518,2.25,2.906,2.25s2.571-0.942,2.906-2.25H16.594z M1.594,10.5
		c0.335,1.308,1.518,2.25,2.906,2.25s2.571-0.942,2.906-2.25H1.594z M22.036,9L19.5,3.927L16.964,9H22.036z M7.036,9L4.5,3.927
		L1.964,9H7.036z"/>
	<path d="M2.25,21c-0.414,0-0.75-0.336-0.75-0.75s0.336-0.75,0.75-0.75h6C8.664,19.5,9,19.836,9,20.25S8.664,21,8.25,21H2.25z"/>
</g>
</svg>
