<svg width="25" height="24" viewBox="0 0 25 24" fill="none" xmlns="http://www.w3.org/2000/svg">
<path d="M17.2598 7.5H21.7598C22.5882 7.5 23.2598 8.17157 23.2598 9V19.5C23.2598 20.3284 22.5882 21 21.7598 21H8.25977C7.43134 21 6.75977 20.3284 6.75977 19.5V16.509" stroke="#37A8EB" stroke-width="1.5" stroke-linecap="round" stroke-linejoin="round"/>
<path d="M17.2598 12.0029H23.2598" stroke="#37A8EB" stroke-width="1.5" stroke-linecap="round" stroke-linejoin="round"/>
<path fill-rule="evenodd" clip-rule="evenodd" d="M0.759766 4.50293C0.759766 3.6745 1.43134 3.00293 2.25977 3.00293H15.7598C16.5882 3.00293 17.2598 3.6745 17.2598 4.50293V15.0029C17.2598 15.8314 16.5882 16.5029 15.7598 16.5029H2.25976C1.43134 16.5029 0.759766 15.8314 0.759766 15.0029V4.50293Z" stroke="#37A8EB" stroke-width="1.5" stroke-linecap="round" stroke-linejoin="round"/>
<path d="M0.759766 7.50293H17.2598" stroke="#37A8EB" stroke-width="1.5" stroke-linecap="round" stroke-linejoin="round"/>
</svg>
