<svg width="24" height="24" viewBox="0 0 24 24" fill="none" xmlns="http://www.w3.org/2000/svg">
<path d="M0.75 2.21692L2.25 4.10892V8.57592C2.21 10.2639 4.167 11.7759 5.999 13.3279" stroke="#37A8EB" stroke-width="1.5" stroke-linecap="round" stroke-linejoin="round"/>
<path d="M5.23063 7.358L6.99963 9.17C7.3033 9.48171 7.75021 9.60774 8.172 9.50061C8.59379 9.39347 8.92638 9.06946 9.0445 8.65061C9.16261 8.23176 9.0483 7.78171 8.74463 7.47L5.99363 4.663V3.2C5.84459 2.32335 5.51125 1.4883 5.01562 0.75" stroke="#37A8EB" stroke-width="1.5" stroke-linecap="round" stroke-linejoin="round"/>
<path d="M6 8.13806V20.2501C6 21.0785 6.67157 21.7501 7.5 21.7501H15" stroke="#37A8EB" stroke-width="1.5" stroke-linecap="round" stroke-linejoin="round"/>
<path d="M23.2498 21.782L21.7498 19.89V15.424C21.7848 13.965 20.3288 12.638 18.7498 11.304V16.622L16.9998 14.83C16.5303 14.3481 15.7591 14.338 15.2773 14.8075C14.7954 15.2769 14.7853 16.0481 15.2548 16.53L18.0098 19.338V20.8C18.1596 21.6752 18.4929 22.5088 18.9878 23.246" stroke="#37A8EB" stroke-width="1.5" stroke-linecap="round" stroke-linejoin="round"/>
<path d="M12.978 18H9" stroke="#37A8EB" stroke-width="1.5" stroke-linecap="round" stroke-linejoin="round"/>
<path d="M10.5 14.25H9" stroke="#37A8EB" stroke-width="1.5" stroke-linecap="round" stroke-linejoin="round"/>
<path d="M20.25 5.25C20.25 7.73528 18.2353 9.75 15.75 9.75C13.2647 9.75 11.25 7.73528 11.25 5.25C11.25 2.76472 13.2647 0.75 15.75 0.75" stroke="#37A8EB" stroke-width="1.5" stroke-linecap="round" stroke-linejoin="round"/>
<path d="M20.2495 1.87402L16.1495 5.97402C16.0437 6.08052 15.8997 6.14041 15.7495 6.14041C15.5994 6.14041 15.4554 6.08052 15.3495 5.97402L14.0605 4.68402" stroke="#37A8EB" stroke-width="1.5" stroke-linecap="round" stroke-linejoin="round"/>
</svg>
