<svg width="24" height="24" viewBox="0 0 24 24" fill="none" xmlns="http://www.w3.org/2000/svg">
<path d="M18.4801 6.44907C18.2133 6.25243 17.8793 6.16987 17.5516 6.21958C17.224 6.26928 16.9295 6.44717 16.7331 6.71407L10.8091 14.7541L7.04206 11.7401C6.5018 11.3262 5.72982 11.4202 5.30459 11.9515C4.87935 12.4828 4.95687 13.2566 5.47906 13.6931L10.2621 17.5191C10.5291 17.7279 10.8688 17.8207 11.2049 17.7765C11.5409 17.7323 11.8451 17.5548 12.0491 17.2841L18.7491 8.19707C18.9453 7.92966 19.0273 7.59519 18.9768 7.26733C18.9264 6.93947 18.7477 6.64511 18.4801 6.44907Z" fill="black"/>
<path fill-rule="evenodd" clip-rule="evenodd" d="M0 12C0 5.37258 5.37258 0 12 0C18.6244 0.00716485 23.9928 5.37555 24 12C24 18.6274 18.6274 24 12 24C5.37258 24 0 18.6274 0 12ZM2.00005 12C2.00005 17.5228 6.47721 22 12.0001 22C17.5204 21.9939 21.994 17.5203 22.0001 12C22.0001 6.47715 17.5229 1.99999 12.0001 1.99999C6.47721 1.99999 2.00005 6.47715 2.00005 12Z" fill="black"/>
</svg>
