<svg width="26" height="26" viewBox="0 0 26 26" fill="none" xmlns="http://www.w3.org/2000/svg">
<path fill-rule="evenodd" clip-rule="evenodd" d="M18.6002 25C22.1348 25 25.0002 22.1347 25.0002 18.6001C25.0002 15.0655 22.1348 12.2002 18.6002 12.2002C15.0656 12.2002 12.2002 15.0655 12.2002 18.6001C12.2002 22.1347 15.0656 25 18.6002 25Z" stroke="#37A8EB" stroke-width="1.5" stroke-linecap="round" stroke-linejoin="round"/>
<path d="M21.4529 16.7397L18.3542 20.8709C18.2148 21.0562 18.002 21.172 17.7707 21.1886C17.5394 21.2052 17.3123 21.1208 17.1478 20.9573L15.5479 19.3573" stroke="#37A8EB" stroke-width="1.5" stroke-linecap="round" stroke-linejoin="round"/>
<path d="M4.19922 7.3999H15.3992" stroke="#37A8EB" stroke-width="1.5" stroke-linecap="round" stroke-linejoin="round"/>
<path d="M4.19922 12.2002H10.5992" stroke="#37A8EB" stroke-width="1.5" stroke-linecap="round" stroke-linejoin="round"/>
<path d="M4.19922 16.9999H8.19921" stroke="#37A8EB" stroke-width="1.5" stroke-linecap="round" stroke-linejoin="round"/>
<path d="M8.19998 21.8001H2.59999C1.71634 21.8001 1 21.0837 1 20.2001V2.60001C1 1.71635 1.71634 1 2.59999 1H13.9376C14.3616 1.00009 14.7683 1.16851 15.0682 1.46827L18.1317 4.53175C18.4314 4.8317 18.5998 5.23837 18.5999 5.66242V8.20003" stroke="#37A8EB" stroke-width="1.5" stroke-linecap="round" stroke-linejoin="round"/>
</svg>
