<svg width="35" height="34" viewBox="0 0 35 34" fill="none" xmlns="http://www.w3.org/2000/svg">
<path fill-rule="evenodd" clip-rule="evenodd" d="M17.6136 0C8.31195 0 0.771484 7.54047 0.771484 16.8421C0.771484 26.1437 8.31195 33.6842 17.6136 33.6842C26.9152 33.6842 34.4557 26.1437 34.4557 16.8421C34.4557 7.54047 26.9152 0 17.6136 0ZM8.8569 13.9493H12.6737V25.4172H8.8569V13.9493ZM12.9249 10.4018C12.9002 9.27736 12.0961 8.42093 10.7904 8.42093C9.48468 8.42093 8.63106 9.27736 8.63106 10.4018C8.63106 11.5029 9.45945 12.384 10.7408 12.384H10.7652C12.0961 12.384 12.9249 11.5029 12.9249 10.4018ZM22.0439 13.6801C24.5555 13.6801 26.4384 15.3195 26.4384 18.8419L26.4383 25.4172H22.6216V19.2819C22.6216 17.7408 22.0693 16.6893 20.6876 16.6893C19.6332 16.6893 19.0051 17.3982 18.7292 18.0829C18.6283 18.3283 18.6035 18.6702 18.6035 19.0129V25.4175H14.7863C14.7863 25.4175 14.8366 15.0257 14.7863 13.9496H18.6035V15.574C19.1101 14.7931 20.0174 13.6801 22.0439 13.6801Z" fill="#37A8EB"/>
</svg>
