<svg width="24" height="24" viewBox="0 0 24 24" fill="none" xmlns="http://www.w3.org/2000/svg">
<path d="M6 2.5H19.5C20.0523 2.5 20.5 2.05228 20.5 1.5C20.5 0.947715 20.0523 0.5 19.5 0.5H6C5.44772 0.5 5 0.947715 5 1.5C5 2.05228 5.44772 2.5 6 2.5Z" fill="black"/>
<path d="M6 8.5H19.5C20.0523 8.5 20.5 8.05228 20.5 7.5C20.5 6.94772 20.0523 6.5 19.5 6.5H6C5.44772 6.5 5 6.94772 5 7.5C5 8.05228 5.44772 8.5 6 8.5Z" fill="black"/>
<path d="M10 13.5C10 12.9477 9.55228 12.5 9 12.5H6C5.44772 12.5 5 12.9477 5 13.5C5 14.0523 5.44772 14.5 6 14.5H9C9.55228 14.5 10 14.0523 10 13.5Z" fill="black"/>
<path d="M2.5 0.5H1.5C0.947715 0.5 0.5 0.947715 0.5 1.5C0.5 2.05228 0.947715 2.5 1.5 2.5H2.5C3.05228 2.5 3.5 2.05228 3.5 1.5C3.5 0.947715 3.05228 0.5 2.5 0.5Z" fill="black"/>
<path d="M2.5 6.5H1.5C0.947715 6.5 0.5 6.94772 0.5 7.5C0.5 8.05228 0.947715 8.5 1.5 8.5H2.5C3.05228 8.5 3.5 8.05228 3.5 7.5C3.5 6.94772 3.05228 6.5 2.5 6.5Z" fill="black"/>
<path d="M2.5 12.5H1.5C0.947715 12.5 0.5 12.9477 0.5 13.5C0.5 14.0523 0.947715 14.5 1.5 14.5H2.5C3.05228 14.5 3.5 14.0523 3.5 13.5C3.5 12.9477 3.05228 12.5 2.5 12.5Z" fill="black"/>
<path fill-rule="evenodd" clip-rule="evenodd" d="M11 17.5C11 13.9101 13.9101 11 17.5 11C21.088 11.0044 23.9956 13.912 24 17.5C24 21.0899 21.0899 24 17.5 24C13.9101 24 11 21.0899 11 17.5ZM17.4999 20.75C17.9142 20.75 18.2499 20.4142 18.2499 20V18.5C18.2499 18.3619 18.3619 18.25 18.4999 18.25H19.9999C20.4142 18.25 20.7499 17.9142 20.7499 17.5C20.7499 17.0858 20.4142 16.75 19.9999 16.75H18.4999C18.3619 16.75 18.2499 16.6381 18.2499 16.5V15C18.2499 14.5858 17.9142 14.25 17.4999 14.25C17.0857 14.25 16.7499 14.5858 16.7499 15V16.5C16.7499 16.6381 16.638 16.75 16.4999 16.75H14.9999C14.5857 16.75 14.2499 17.0858 14.2499 17.5C14.2499 17.9142 14.5857 18.25 14.9999 18.25H16.4999C16.638 18.25 16.7499 18.3619 16.7499 18.5V20C16.7499 20.4142 17.0857 20.75 17.4999 20.75Z" fill="black"/>
</svg>
