<svg xmlns="http://www.w3.org/2000/svg" width="235.95" height="69.957" viewBox="0 0 235.95 69.957">
  <g id="logo" transform="translate(-308.999 -50)">
    <path id="Union_26" data-name="Union 26" d="M36.83,63.779V61.058h3.213c.619,0,.249-.492,0-.864C39.8,59.7,16.684,32.262,16.684,32.262l-4.82,4.821V51.049c-6.674-3.338-8.157-8.035-8.157-8.035V5.563C3.706,2.475,0,2.844,0,2.844V0H15.572V2.722s-3.709-.373-3.709,2.717V27.564s13.35-13.35,15.449-15.574c.249-.124,3.09-.617,8.157,1.236-.37.492-13.1,13.35-13.1,13.35L50.18,60.07c1.606,1.606,2.841,1.113,2.841,1.113v2.6ZM0,63.656V60.935c0-.026.136-.021.357-.015.854.023,2.955.048,3.349-1.715v-3.46a30,30,0,0,0,11.866,5.438v2.473ZM33.124,4.45c.865-.741.742-1.729-.5-1.729H29.414V0H44.863V2.6L40.785,6.554A29.627,29.627,0,0,0,33.124,4.45Z" transform="translate(318.148 53.088)" fill="#323e48"/>
    <path id="Union_25" data-name="Union 25" d="M33.617,56.73c-16.19-.493-29.292-10.38-31.763-24.224A8.306,8.306,0,0,0,0,28.674,7.684,7.684,0,0,0,1.854,25.09,25.986,25.986,0,0,1,11.619,8.527V18.541A21.369,21.369,0,0,0,8.4,29.046C7.417,39.8,20.888,56.73,43.754,51.54L46.6,55a40.991,40.991,0,0,1-11.864,1.745C34.359,56.746,33.986,56.741,33.617,56.73Zm20.147-9.639a22.775,22.775,0,0,0,6.429-6.8h1.975v7.045c-.122,0-2.47-.5-6.176,2.72ZM22.247,9.395V2.719C40.665-2.966,52.776,5.069,52.776,5.069c1.36.987,1.36.123,1.113-.25a31.7,31.7,0,0,0-2.842-1.978L53.89,0l8.774,8.9-5.932,6.058C40.543-.37,22.247,9.395,22.247,9.395Z" transform="translate(308.999 57.292)" fill="#10cfc9"/>
    <path id="Path_2968" data-name="Path 2968" d="M66.289,69.957a.975.975,0,0,1-.989-.989V.989A.975.975,0,0,1,66.289,0a.91.91,0,0,1,.989.989v68.1A1.049,1.049,0,0,1,66.289,69.957Z" transform="translate(324.409 50)" fill="#323e48"/>
    <path id="Union_24" data-name="Union 24" d="M3.583,49.44a1.783,1.783,0,0,1-.246-.742.937.937,0,0,0-.249-.618v.741c0,.25-.245.5-.369.741L1.605,54.755H0l2.474-11L5.562,50.43c0,.123.123.247.249.492a6.186,6.186,0,0,1,.369.868,7.343,7.343,0,0,1,.494-1.113A.429.429,0,0,1,6.8,50.43l3.088-6.674,2.6,11H10.876L9.763,49.563a2.668,2.668,0,0,0-.123-.741c0-.246-.123-.618-.123-.741,0,.246-.123.5-.123.741s-.249.5-.372.741L6.3,55.25Zm63.283,4.573A4.768,4.768,0,0,1,65.753,50.8V44.247h1.731v6.43a3.028,3.028,0,0,0,.618,2.1,2.9,2.9,0,0,0,1.975.741,2.6,2.6,0,0,0,1.979-.741,2.856,2.856,0,0,0,.618-2.1v-6.43h1.731V50.8a4.229,4.229,0,0,1-1.113,3.215,4.416,4.416,0,0,1-3.215,1.113A4.225,4.225,0,0,1,66.866,54.014Zm-14.585.741a4.865,4.865,0,0,1-1.854-1.236,5.533,5.533,0,0,1-1.234-1.729,6.127,6.127,0,0,1,0-4.205,8.114,8.114,0,0,1,1.234-1.852A4.878,4.878,0,0,1,52.281,44.5a6.412,6.412,0,0,1,2.226-.371,6.943,6.943,0,0,1,2.225.371,4.424,4.424,0,0,1,1.852,1.237,4.859,4.859,0,0,1,1.237,1.852,5.413,5.413,0,0,1,.249,1.978,5.75,5.75,0,0,1-.373,2.1,8.014,8.014,0,0,1-1.236,1.853,4.846,4.846,0,0,1-1.852,1.236,6.318,6.318,0,0,1-2.1.372A7.023,7.023,0,0,1,52.281,54.755Zm.74-8.775a2.825,2.825,0,0,0-1.232.864,4.449,4.449,0,0,0-.868,1.236,3.153,3.153,0,0,0-.246,1.482,6.239,6.239,0,0,0,.246,1.485,2.816,2.816,0,0,0,.868,1.234,4.446,4.446,0,0,0,1.232.867,3.16,3.16,0,0,0,1.485.246,6.247,6.247,0,0,0,1.483-.246,2.836,2.836,0,0,0,1.236-.867,7.46,7.46,0,0,0,.864-1.234,2.915,2.915,0,0,0,.246-1.485,6.206,6.206,0,0,0-.246-1.482,2.836,2.836,0,0,0-.864-1.236,4.5,4.5,0,0,0-1.236-.864,3.153,3.153,0,0,0-1.483-.246A6.263,6.263,0,0,0,53.021,45.979Zm-15.2,8.529a2.831,2.831,0,0,1-1.113-1.854l1.36-.618a1.82,1.82,0,0,0,.74,1.113,2.24,2.24,0,0,0,1.36.369,2.091,2.091,0,0,0,1.236-.369,1.205,1.205,0,0,0,.5-1.113c0-.619-.5-1.237-1.605-1.606a.455.455,0,0,0-.372-.126A8.152,8.152,0,0,1,37.575,48.7a2.664,2.664,0,0,1-.618-1.729,2.551,2.551,0,0,1,.863-2.1A3.645,3.645,0,0,1,40.168,44a3.358,3.358,0,0,1,1.978.494,3,3,0,0,1,1.113,1.36L41.9,46.6a2.081,2.081,0,0,0-.741-.741,1.791,1.791,0,0,0-.864-.249,1.514,1.514,0,0,0-1.113.372,1.41,1.41,0,0,0-.373.99c0,.615.618,1.233,1.855,1.729.123,0,.123.123.249.123a8.93,8.93,0,0,1,2.1,1.359,2.459,2.459,0,0,1,.618,1.732,2.975,2.975,0,0,1-.991,2.347,4.076,4.076,0,0,1-2.6.867A4.276,4.276,0,0,1,37.82,54.509Zm-11.866,0a2.813,2.813,0,0,1-1.11-1.854l1.359-.618a1.8,1.8,0,0,0,.741,1.113,2.226,2.226,0,0,0,1.36.369,2.1,2.1,0,0,0,1.236-.369,1.209,1.209,0,0,0,.491-1.113c0-.619-.491-1.237-1.605-1.606a.445.445,0,0,0-.371-.126A8.262,8.262,0,0,1,25.708,48.7a2.67,2.67,0,0,1-.618-1.729,2.551,2.551,0,0,1,.864-2.1A3.645,3.645,0,0,1,28.3,44a3.366,3.366,0,0,1,1.977.494,3.013,3.013,0,0,1,1.111,1.36l-1.36.741a2.049,2.049,0,0,0-.74-.741,1.785,1.785,0,0,0-.865-.249,1.52,1.52,0,0,0-1.113.372,1.411,1.411,0,0,0-.369.99c0,.615.618,1.233,1.855,1.729.123,0,.123.123.245.123a8.908,8.908,0,0,1,2.1,1.359,2.446,2.446,0,0,1,.618,1.732,2.975,2.975,0,0,1-.99,2.347,4.072,4.072,0,0,1-2.593.867A4.277,4.277,0,0,1,25.954,54.509Zm66.62.246V44.125H94.3v10.63Zm-6.921,0-3.582-4.7v4.7H80.462V44.125H82.81a5.645,5.645,0,0,1,1.607.122,2.5,2.5,0,0,1,.987.5,1.919,1.919,0,0,1,.742.99,4.385,4.385,0,0,1,.249,1.359,3.163,3.163,0,0,1-.618,1.979,2.647,2.647,0,0,1-1.855.863l3.71,4.82ZM82.563,48.7a3.489,3.489,0,0,0,1.854-.369,1.2,1.2,0,0,0,.5-1.113,1.3,1.3,0,0,0-.5-1.236,3,3,0,0,0-1.731-.369h-.369V48.7Zm-.246,0h0ZM17.551,54.755V44.125h1.729v10.63ZM132.124,35.1l1.486-3.955,1.359.5-1.854,3.829ZM30.156,26.945a2.708,2.708,0,0,1-.493-.618c-.125-.245-.371-.372-.494-.618v7.416H27.563V22l6.676,6.425c.122.124.369.373.614.618s.373.5.618.742V22.5H37.08v11Zm38.811,5.808A3.152,3.152,0,0,1,67.854,30.9l1.36-.619a1.8,1.8,0,0,0,.744,1.111,2.195,2.195,0,0,0,1.356.372,2.072,2.072,0,0,0,1.236-.372,1.2,1.2,0,0,0,.5-1.111c0-.618-.5-1.236-1.606-1.607a.458.458,0,0,0-.371-.123,8.318,8.318,0,0,1-2.348-1.606,2.675,2.675,0,0,1-.618-1.73,2.547,2.547,0,0,1,.864-2.1,3.625,3.625,0,0,1,2.348-.864,3.366,3.366,0,0,1,1.98.5,3.014,3.014,0,0,1,1.11,1.359l-1.359.742A2.077,2.077,0,0,0,72.3,24.1a1.76,1.76,0,0,0-.865-.249,1.5,1.5,0,0,0-1.112.372,1.407,1.407,0,0,0-.369.988c0,.618.614,1.236,1.852,1.73.123,0,.123.124.249.124a8.839,8.839,0,0,1,2.1,1.358,2.456,2.456,0,0,1,.618,1.732,2.975,2.975,0,0,1-.99,2.347,4.074,4.074,0,0,1-2.6.864A4.259,4.259,0,0,1,68.967,32.753Zm-25.335,0A2.641,2.641,0,0,1,42.518,30.9l1.359-.619a1.807,1.807,0,0,0,.742,1.111,2.2,2.2,0,0,0,1.358.372,2.079,2.079,0,0,0,1.237-.372,1.207,1.207,0,0,0,.5-1.111c0-.618-.5-1.236-1.609-1.607a.451.451,0,0,0-.369-.123,8.326,8.326,0,0,1-2.349-1.606,2.692,2.692,0,0,1-.619-1.73,2.549,2.549,0,0,1,.868-2.1,3.619,3.619,0,0,1,2.346-.864,3.364,3.364,0,0,1,1.979.5A3.02,3.02,0,0,1,49.069,24.1l-1.359.742a2.1,2.1,0,0,0-.741-.742,1.772,1.772,0,0,0-.868-.249,1.5,1.5,0,0,0-1.11.372,1.4,1.4,0,0,0-.371.988c0,.618.618,1.236,1.854,1.73.123,0,.123.124.246.124a8.715,8.715,0,0,1,2.1,1.358,2.443,2.443,0,0,1,.618,1.732,2.973,2.973,0,0,1-.987,2.347,4.074,4.074,0,0,1-2.6.864A4.253,4.253,0,0,1,43.632,32.753Zm47.953,0a7.3,7.3,0,0,1-1.855-1.11A6.956,6.956,0,0,1,88.5,29.788a4.45,4.45,0,0,1-.372-2.224A6.4,6.4,0,0,1,88.5,25.34a4.45,4.45,0,0,1,1.233-1.854,6.952,6.952,0,0,1,1.855-1.236,4.441,4.441,0,0,1,2.226-.373,7.3,7.3,0,0,1,1.729.25,5.166,5.166,0,0,1,1.608.864l-.126,1.978a6.978,6.978,0,0,0-1.606-.99,4.384,4.384,0,0,0-1.731-.369,4.021,4.021,0,0,0-2.842,6.8,3.641,3.641,0,0,0,2.719,1.113,4.928,4.928,0,0,0,1.854-.372,6.969,6.969,0,0,0,1.606-.987v1.978a4.225,4.225,0,0,1-1.482.741,7.307,7.307,0,0,1-1.729.246A5.947,5.947,0,0,1,91.585,32.753ZM124.339,33V28.183l-3.583-5.811h1.852l2.228,3.586c0,.124.122.246.245.369s.124.369.246.5c.123-.126.123-.371.249-.5s.123-.245.247-.369l2.224-3.586h1.731l-3.71,5.811V33Zm-11.866,0V23.854H109.63V22.372h7.293v1.482H114.2V33Zm-9.517,0V22.372h1.731V33ZM61.921,33l-1.237-2.72h-4.2L55.245,33H53.518l5.191-11,5.066,11ZM58.46,25.833a.947.947,0,0,1-.245.494L57.227,28.8h2.965l-1.113-2.474c-.123-.123-.123-.372-.245-.494s-.124-.369-.25-.618A5.316,5.316,0,0,1,58.46,25.833ZM21.012,33l-1.236-2.72h-4.2L14.337,33H12.481l5.192-11,5.069,11Zm-3.584-7.169a.927.927,0,0,1-.249.494L16.191,28.8h2.965l-1.113-2.474c-.123-.123-.123-.372-.246-.494s-.123-.369-.246-.618A5.316,5.316,0,0,1,17.428,25.833ZM6.921,33,2.843,27.564V33H1.11V22.372H2.843v4.45l3.831-4.45h2.1l-4.327,4.7L9.145,33ZM58.337,11a4.893,4.893,0,0,1-1.854-1.237,5.623,5.623,0,0,1-1.237-1.729,5.818,5.818,0,0,1-.369-2.1,5.82,5.82,0,0,1,.369-2.1,8.244,8.244,0,0,1,1.237-1.854A4.869,4.869,0,0,1,58.337.742,6.486,6.486,0,0,1,60.561.373a7.048,7.048,0,0,1,2.228.369,4.427,4.427,0,0,1,1.851,1.236,4.871,4.871,0,0,1,1.237,1.854,5.471,5.471,0,0,1,.246,1.979,5.734,5.734,0,0,1-.369,2.1,7.939,7.939,0,0,1-1.236,1.852A4.916,4.916,0,0,1,62.664,11a6.254,6.254,0,0,1-2.1.371A6.946,6.946,0,0,1,58.337,11Zm.741-8.776a2.849,2.849,0,0,0-1.236.867,4.5,4.5,0,0,0-.864,1.234,3.153,3.153,0,0,0-.246,1.485,6.223,6.223,0,0,0,.246,1.482,2.836,2.836,0,0,0,.864,1.236,4.472,4.472,0,0,0,1.236.864,3.153,3.153,0,0,0,1.482.246,6.231,6.231,0,0,0,1.485-.246,2.842,2.842,0,0,0,1.236-.864,7.855,7.855,0,0,0,.865-1.236,2.693,2.693,0,0,0,.246-1.482,6.231,6.231,0,0,0-.246-1.485,2.86,2.86,0,0,0-.865-1.234,4.481,4.481,0,0,0-1.236-.867,3.153,3.153,0,0,0-1.485-.246A6.256,6.256,0,0,0,59.078,2.225ZM4.2,10.877A7.3,7.3,0,0,1,2.347,9.764,6.99,6.99,0,0,1,1.11,7.912,4.483,4.483,0,0,1,.741,5.686,6.488,6.488,0,0,1,1.11,3.461,4.476,4.476,0,0,1,2.347,1.606,7.091,7.091,0,0,1,4.2.369,4.481,4.481,0,0,1,6.425,0,7.345,7.345,0,0,1,8.157.247a5.106,5.106,0,0,1,1.605.867L9.64,3.089A7.2,7.2,0,0,0,8.034,2.1,4.384,4.384,0,0,0,6.3,1.732a3.914,3.914,0,0,0-2.842,1.11A3.917,3.917,0,0,0,2.347,5.686,3.906,3.906,0,0,0,3.461,8.527,3.621,3.621,0,0,0,6.18,9.641a4.981,4.981,0,0,0,1.854-.369,7.1,7.1,0,0,0,1.605-.99v1.978A4.169,4.169,0,0,1,8.157,11a7.242,7.242,0,0,1-1.732.249A5.95,5.95,0,0,1,4.2,10.877ZM71.81.5h5.934V1.979h-4.2v2.6h4.2V6.057h-4.2V11H71.81V.5ZM36.957,11.123V6.3L33.37.5h1.855l2.224,3.583c0,.123.122.247.245.372s.126.369.25.493c.123-.124.123-.369.245-.493s.124-.249.249-.372L40.663.5h1.731L38.686,6.3v4.819Zm-11.867,0V1.979H22.248V.5h7.29V1.979H26.819v9.145Zm-9.641,0V.5h1.729V11.123Z" transform="translate(409.979 57.539)" fill="#323e48"/>
  </g>
</svg>
