<svg width="24" height="24" viewBox="0 0 24 24" fill="none" xmlns="http://www.w3.org/2000/svg">
<path fill-rule="evenodd" clip-rule="evenodd" d="M12 23.751C5.51013 23.751 0.249023 18.4899 0.249023 12C0.256738 5.51332 5.51332 0.256738 12 0.249023C18.4899 0.249023 23.751 5.51013 23.751 12C23.751 18.4899 18.4899 23.751 12 23.751ZM15.5378 20.547C18.9949 19.1153 21.249 15.7419 21.249 12H21.251C21.245 6.89336 17.1067 2.75509 12 2.74903C8.25819 2.74822 4.88432 5.00164 3.45181 8.45844C2.0193 11.9152 2.81029 15.8946 5.4559 18.5408C8.10151 21.187 12.0807 21.9788 15.5378 20.547Z" fill="#37A8EB"/>
<path d="M8.83298 7.06608C8.51716 6.75025 8.05683 6.62691 7.62541 6.74251C7.19399 6.85811 6.85701 7.19509 6.74141 7.62651C6.62581 8.05793 6.74916 8.51826 7.06498 8.83408L10.055 11.8231C10.102 11.87 10.1284 11.9337 10.1284 12.0001C10.1284 12.0665 10.102 12.1302 10.055 12.1771L7.06498 15.1671C6.74012 15.481 6.60994 15.9458 6.72445 16.3828C6.83897 16.8198 7.18037 17.161 7.61744 17.2753C8.05451 17.3896 8.51923 17.2591 8.83298 16.9341L11.822 13.9451C11.8687 13.8978 11.9325 13.8712 11.999 13.8712C12.0655 13.8712 12.1292 13.8978 12.176 13.9451L15.166 16.9341C15.4816 17.2497 15.9417 17.373 16.3729 17.2575C16.804 17.1419 17.1408 16.8051 17.2564 16.374C17.3719 15.9428 17.2486 15.4827 16.933 15.1671L13.944 12.1771C13.897 12.1302 13.8705 12.0665 13.8705 12.0001C13.8705 11.9337 13.897 11.87 13.944 11.8231L16.933 8.83408C17.258 8.52033 17.3885 8.05561 17.2742 7.61854C17.1599 7.18147 16.8187 6.84007 16.3817 6.72555C15.9447 6.61103 15.4799 6.74122 15.166 7.06608L12.176 10.0561C12.0781 10.1535 11.9199 10.1535 11.822 10.0561L8.83298 7.06608Z" fill="#37A8EB"/>
</svg>
