<svg width="34" height="34" viewBox="0 0 34 34" fill="none" xmlns="http://www.w3.org/2000/svg">
<path fill-rule="evenodd" clip-rule="evenodd" d="M17.1575 0C7.8559 0 0.31543 7.54047 0.31543 16.8421C0.31543 26.1437 7.8559 33.6842 17.1575 33.6842C26.4592 33.6842 33.9996 26.1437 33.9996 16.8421C33.9996 7.54047 26.4592 0 17.1575 0ZM16.6883 14.2722L16.653 13.6894C16.5469 12.179 17.4776 10.7993 18.9502 10.2641C19.4921 10.0739 20.411 10.0501 21.0118 10.2166C21.2474 10.2879 21.6951 10.5258 22.0132 10.7399L22.5904 11.1324L23.2266 10.9302C23.58 10.8231 24.0512 10.6447 24.2633 10.5258C24.4636 10.4188 24.6403 10.3593 24.6403 10.395C24.6403 10.5972 24.2044 11.287 23.8392 11.6676C23.3444 12.2028 23.4858 12.2503 24.4871 11.8935C25.0879 11.6913 25.0997 11.6913 24.9819 11.9173C24.9112 12.0363 24.546 12.4525 24.1573 12.8331C23.4975 13.4872 23.4622 13.5586 23.4622 14.1057C23.4622 14.9501 23.0617 16.7103 22.6611 17.6737C21.9189 19.4815 20.3285 21.3488 18.7381 22.2883C16.4998 23.6085 13.5193 23.9415 11.01 23.1684C10.1736 22.9068 8.73633 22.2408 8.73633 22.1218C8.73633 22.0862 9.17221 22.0386 9.70235 22.0267C10.8097 22.0029 11.9171 21.6937 12.8596 21.1466L13.4957 20.766L12.7653 20.5162C11.7286 20.1594 10.798 19.3388 10.5623 18.5657C10.4917 18.3159 10.5152 18.3041 11.1749 18.3041L11.8582 18.2922L11.281 18.0186C10.5977 17.6737 9.9733 17.0909 9.667 16.4963C9.44317 16.0681 9.16043 14.9858 9.2429 14.9026C9.26646 14.8669 9.51385 14.9382 9.79659 15.0334C10.6095 15.3307 10.7155 15.2594 10.2443 14.7598C9.3607 13.8559 9.08975 12.512 9.51385 11.2394L9.71413 10.6685L10.4917 11.4416C12.082 12.9996 13.9552 13.9273 16.0993 14.2009L16.6883 14.2722Z" fill="#37A8EB"/>
</svg>
