<svg width="1446" height="415" viewBox="0 0 1446 415" fill="none" xmlns="http://www.w3.org/2000/svg">
<g clip-path="url(#clip0)">
<mask id="mask0" mask-type="alpha" maskUnits="userSpaceOnUse" x="456" y="69" width="1312" height="1606">
<g opacity="0.5">
<path d="M1144.88 1674.41L919.376 1543.43C918.919 1543.16 918.637 1542.68 918.637 1542.15V652.296C918.637 651.487 919.067 650.738 919.766 650.329L1531.23 293.087C1532.7 292.23 1534.51 292.185 1536.01 292.969L1766.77 412.932C1767.53 413.325 1768 414.104 1768 414.954V1090.22C1768 1091.02 1767.58 1091.76 1766.89 1092.17L1240.07 1406.94C1238.55 1407.85 1236.62 1406.75 1236.62 1404.99V1168.99C1236.62 1168.2 1237.02 1167.48 1237.69 1167.06L1533.59 980.853V571.5L1149.34 795.961V1671.84C1149.34 1674.13 1146.86 1675.56 1144.88 1674.41Z" fill="white"/>
<path d="M457.096 1092.17L809.964 1306.4C811.483 1307.32 813.425 1306.23 813.425 1304.45V1045.7C813.425 1044.93 813.035 1044.21 812.388 1043.79L704.38 973.617V538L1059.21 337.233L1180.92 371.407C1181.52 371.573 1182.15 371.492 1182.69 371.182L1410.29 238.68C1411.88 237.757 1411.78 235.434 1410.12 234.651L1061.54 70.1003C1060.08 69.4107 1058.37 69.4772 1056.97 70.2784L457.148 412.915C456.438 413.32 456 414.075 456 414.893V1090.23C456 1091.02 456.415 1091.76 457.096 1092.17Z" fill="white"/>
<path d="M1144.88 1674.41L919.376 1543.43C918.919 1543.16 918.637 1542.68 918.637 1542.15V652.296C918.637 651.487 919.067 650.738 919.766 650.329L1531.23 293.087C1532.7 292.23 1534.51 292.185 1536.01 292.969L1766.77 412.932C1767.53 413.325 1768 414.104 1768 414.954V1090.22C1768 1091.02 1767.58 1091.76 1766.89 1092.17L1240.07 1406.94C1238.55 1407.85 1236.62 1406.75 1236.62 1404.99V1168.99C1236.62 1168.2 1237.02 1167.48 1237.69 1167.06L1533.59 980.853V571.5L1149.34 795.961V1671.84C1149.34 1674.13 1146.86 1675.56 1144.88 1674.41Z" stroke="white" stroke-width="0.103494"/>
<path d="M457.096 1092.17L809.964 1306.4C811.483 1307.32 813.425 1306.23 813.425 1304.45V1045.7C813.425 1044.93 813.035 1044.21 812.388 1043.79L704.38 973.617V538L1059.21 337.233L1180.92 371.407C1181.52 371.573 1182.15 371.492 1182.69 371.182L1410.29 238.68C1411.88 237.757 1411.78 235.434 1410.12 234.651L1061.54 70.1003C1060.08 69.4107 1058.37 69.4772 1056.97 70.2784L457.148 412.915C456.438 413.32 456 414.075 456 414.893V1090.23C456 1091.02 456.415 1091.76 457.096 1092.17Z" stroke="white" stroke-width="0.103494"/>
</g>
</mask>
<g mask="url(#mask0)">
<rect x="476" y="65" width="970" height="350" fill="#FAFAFA"/>
</g>
</g>
<defs>
<clipPath id="clip0">
<rect width="1446" height="415" fill="white"/>
</clipPath>
</defs>
</svg>
