<?xml version="1.0" encoding="utf-8"?>
<!-- Generator: Adobe Illustrator 22.1.0, SVG Export Plug-In . SVG Version: 6.00 Build 0)  -->
<svg version="1.1" id="Layer_1" xmlns="http://www.w3.org/2000/svg" xmlns:xlink="http://www.w3.org/1999/xlink" x="0px" y="0px"
	 viewBox="0 0 24 24" style="enable-background:new 0 0 24 24;" xml:space="preserve">
<title>3d-box-expand</title>
<g>
	<path d="M12,19.5c-0.061,0-0.125-0.008-0.188-0.025c-0.015-0.004-0.05-0.016-0.065-0.022c-0.025-0.008-0.053-0.018-0.081-0.032
		l-6.001-3C5.409,16.293,5.25,16.036,5.25,15.75V9c0-0.066,0.009-0.133,0.027-0.199c0.005-0.019,0.019-0.056,0.027-0.074
		c0.011-0.03,0.028-0.071,0.051-0.109C5.368,8.598,5.383,8.576,5.4,8.555c0.025-0.033,0.049-0.063,0.077-0.091
		C5.495,8.447,5.516,8.43,5.538,8.413c0.019-0.017,0.042-0.035,0.067-0.051c0.008-0.005,0.047-0.027,0.06-0.033l6-3
		C11.768,5.277,11.884,5.25,12,5.25s0.232,0.027,0.335,0.079l6,3c0.009,0.004,0.049,0.027,0.059,0.033
		c0.025,0.016,0.05,0.035,0.073,0.055c0.018,0.013,0.04,0.032,0.061,0.052c0.024,0.023,0.049,0.054,0.073,0.088
		c0.016,0.019,0.031,0.041,0.045,0.065c0.02,0.034,0.036,0.072,0.051,0.111c0.009,0.02,0.019,0.045,0.025,0.07
		C18.741,8.867,18.75,8.934,18.75,9v6.75c0,0.286-0.159,0.543-0.415,0.671l-6,3c-0.029,0.014-0.057,0.025-0.086,0.034
		c-0.017,0.007-0.038,0.014-0.059,0.02C12.125,19.492,12.061,19.5,12,19.5z M12.75,17.537l4.5-2.25v-5.073l-4.5,2.25V17.537z
		 M11.25,17.537v-5.073l-4.5-2.25v5.073L11.25,17.537z M12,11.161L16.323,9L12,6.839L7.677,9L12,11.161z"/>
	<path d="M2.25,15c-0.2,0-0.389-0.078-0.53-0.22l-1.5-1.5c-0.292-0.292-0.292-0.768,0-1.061l1.5-1.5
		c0.142-0.142,0.33-0.22,0.53-0.22s0.389,0.078,0.53,0.22C2.922,10.861,3,11.05,3,11.25s-0.078,0.389-0.22,0.53l-0.97,0.97
		l0.97,0.97c0.292,0.292,0.292,0.768,0,1.061C2.639,14.922,2.45,15,2.25,15z"/>
	<path d="M21.75,15c-0.2,0-0.389-0.078-0.53-0.22c-0.292-0.292-0.292-0.768,0-1.061l0.97-0.97l-0.97-0.97
		C21.078,11.639,21,11.45,21,11.25s0.078-0.389,0.22-0.53s0.33-0.22,0.53-0.22s0.389,0.078,0.53,0.22l1.5,1.5
		c0.292,0.292,0.292,0.768,0,1.061l-1.5,1.5C22.139,14.922,21.95,15,21.75,15z"/>
	<path d="M13.5,3c-0.2,0-0.389-0.078-0.53-0.22L12,1.811l-0.97,0.97C10.889,2.922,10.7,3,10.5,3s-0.389-0.078-0.53-0.22
		C9.828,2.639,9.75,2.45,9.75,2.25s0.078-0.389,0.22-0.53l1.5-1.5C11.611,0.078,11.8,0,12,0s0.389,0.078,0.53,0.22l1.5,1.5
		c0.142,0.141,0.22,0.33,0.22,0.53s-0.078,0.389-0.22,0.53S13.7,3,13.5,3z"/>
	<path d="M12,24c-0.2,0-0.389-0.078-0.53-0.22l-1.5-1.5c-0.292-0.292-0.292-0.768,0-1.061C10.111,21.078,10.3,21,10.5,21
		s0.389,0.078,0.53,0.22l0.97,0.97l0.97-0.97C13.111,21.078,13.3,21,13.5,21s0.389,0.078,0.53,0.22c0.292,0.292,0.292,0.768,0,1.061
		l-1.5,1.5C12.389,23.922,12.2,24,12,24z"/>
</g>
</svg>
