<?xml version="1.0" encoding="utf-8"?>
<!-- Generator: Adobe Illustrator 22.1.0, SVG Export Plug-In . SVG Version: 6.00 Build 0)  -->
<svg version="1.1" id="Layer_1" xmlns="http://www.w3.org/2000/svg" xmlns:xlink="http://www.w3.org/1999/xlink" x="0px" y="0px"
	 viewBox="0 0 24 24" style="enable-background:new 0 0 24 24;" xml:space="preserve">
<title>3d-box-corner</title>
<g>
	<path d="M12,22.84c-0.061,0-0.122-0.008-0.188-0.026c-0.019-0.005-0.04-0.012-0.061-0.02c-0.012-0.003-0.036-0.011-0.059-0.021
		l-7.926-3.603l-2.68,1.34c-0.104,0.052-0.22,0.079-0.335,0.079c-0.286,0-0.543-0.159-0.671-0.414
		c-0.185-0.37-0.034-0.821,0.335-1.006L3,17.876V9.34c0-0.014,0.001-0.031,0.003-0.046c0.003-0.041,0.008-0.079,0.016-0.117
		c0.004-0.018,0.009-0.035,0.014-0.052C3.045,9.085,3.06,9.047,3.078,9.01C3.082,9.003,3.096,8.975,3.1,8.968
		c0.053-0.093,0.127-0.175,0.214-0.237c0.01-0.008,0.02-0.015,0.029-0.021C3.355,8.702,3.37,8.694,3.386,8.686
		C3.4,8.677,3.42,8.666,3.44,8.657l7.81-3.55V1.84c0-0.414,0.336-0.75,0.75-0.75s0.75,0.336,0.75,0.75v3.267l7.811,3.55
		c0.012,0.006,0.038,0.019,0.054,0.029c0.014,0.007,0.029,0.015,0.04,0.022c0.014,0.009,0.026,0.018,0.037,0.027
		C20.78,8.8,20.849,8.879,20.9,8.967c0.006,0.01,0.018,0.035,0.023,0.046c0.017,0.036,0.032,0.072,0.043,0.11
		c0.006,0.02,0.011,0.039,0.015,0.059c0.008,0.033,0.013,0.071,0.015,0.11C20.999,9.308,21,9.326,21,9.34v8.536l2.585,1.293
		c0.37,0.185,0.52,0.636,0.335,1.006c-0.128,0.256-0.385,0.415-0.671,0.415c-0.115,0-0.231-0.027-0.334-0.079l-2.681-1.34
		l-7.924,3.602c-0.016,0.008-0.056,0.021-0.073,0.026c-0.009,0.004-0.03,0.01-0.052,0.016C12.122,22.832,12.061,22.84,12,22.84z
		 M12.75,20.925l6.75-3.068v-7.352l-6.75,3.068V20.925z M11.25,20.925v-7.353L4.5,10.505v7.352L11.25,20.925z M12,12.266
		l6.437-2.926L12,6.414L5.563,9.34L12,12.266z"/>
</g>
</svg>
