<?xml version="1.0" encoding="utf-8"?>
<!-- Generator: Adobe Illustrator 22.1.0, SVG Export Plug-In . SVG Version: 6.00 Build 0)  -->
<svg version="1.1" id="Layer_1" xmlns="http://www.w3.org/2000/svg" xmlns:xlink="http://www.w3.org/1999/xlink" x="0px" y="0px"
	 viewBox="0 0 24 24" style="enable-background:new 0 0 24 24;" xml:space="preserve">
<title>3d-box-expand-corners</title>
<g>
	<path d="M12,7.5c-0.414,0-0.75-0.336-0.75-0.75V2.561L9.53,4.28C9.389,4.422,9.2,4.5,9,4.5S8.611,4.422,8.47,4.28
		C8.328,4.139,8.25,3.95,8.25,3.75s0.078-0.389,0.22-0.53l2.999-2.999c0.07-0.07,0.152-0.125,0.245-0.163
		c0.008-0.003,0.016-0.006,0.025-0.009C11.825,0.016,11.912,0,12,0c0.089,0,0.177,0.016,0.261,0.048
		c0.007,0.002,0.014,0.005,0.02,0.007c0.097,0.04,0.179,0.095,0.25,0.166L15.53,3.22c0.142,0.141,0.22,0.33,0.22,0.53
		s-0.078,0.389-0.22,0.53S15.2,4.5,15,4.5s-0.389-0.078-0.53-0.22l-1.72-1.72V6.75C12.75,7.164,12.414,7.5,12,7.5z"/>
	<path d="M0.75,24c-0.088,0-0.175-0.016-0.26-0.047c-0.008-0.003-0.015-0.005-0.022-0.008c-0.188-0.077-0.336-0.226-0.412-0.41
		c-0.003-0.007-0.006-0.015-0.009-0.023C0.017,23.43,0,23.341,0,23.25v-3c0-0.414,0.336-0.75,0.75-0.75s0.75,0.336,0.75,0.75v1.189
		l3.595-3.595c0.142-0.142,0.33-0.22,0.53-0.22s0.389,0.078,0.53,0.22c0.142,0.142,0.22,0.33,0.22,0.53s-0.078,0.389-0.22,0.53
		L2.561,22.5H3.75c0.414,0,0.75,0.336,0.75,0.75S4.164,24,3.75,24H0.75z"/>
	<path d="M12,23.25c-0.061,0-0.122-0.008-0.188-0.026c-0.011-0.003-0.041-0.012-0.051-0.016c-0.024-0.007-0.047-0.015-0.071-0.026
		L7.107,21.1c-0.376-0.171-0.544-0.616-0.373-0.993c0.122-0.267,0.39-0.44,0.683-0.44c0.107,0,0.212,0.023,0.31,0.067l3.523,1.601
		v-7.353L4.5,10.915v4.835c0,0.414-0.336,0.75-0.75,0.75S3,16.164,3,15.75v-6c0-0.014,0.001-0.031,0.003-0.046
		c0.002-0.041,0.008-0.079,0.016-0.116c0.002-0.008,0.01-0.04,0.012-0.047C3.045,9.496,3.06,9.458,3.078,9.42
		c0.004-0.008,0.018-0.037,0.023-0.044c0.052-0.091,0.125-0.172,0.213-0.235c0.01-0.008,0.02-0.015,0.029-0.021
		c0.011-0.007,0.026-0.016,0.041-0.023C3.401,9.086,3.42,9.076,3.44,9.067L8.69,6.681C8.788,6.636,8.893,6.614,9,6.614
		c0.293,0,0.562,0.173,0.683,0.44c0.083,0.182,0.09,0.386,0.019,0.574c-0.07,0.188-0.21,0.337-0.392,0.419L5.563,9.75L12,12.676
		l6.438-2.926l-3.746-1.702c-0.376-0.171-0.543-0.617-0.372-0.993c0.121-0.267,0.389-0.44,0.683-0.44
		c0.107,0,0.211,0.023,0.31,0.067l5.249,2.385c0.012,0.005,0.035,0.018,0.052,0.028c0.015,0.007,0.03,0.015,0.044,0.024
		c0.01,0.007,0.022,0.015,0.033,0.024c0.089,0.065,0.159,0.143,0.211,0.235c0.006,0.01,0.018,0.034,0.022,0.044
		c0.018,0.037,0.032,0.073,0.044,0.112c0.006,0.019,0.01,0.037,0.015,0.057c0.008,0.034,0.013,0.072,0.015,0.111
		C20.999,9.718,21,9.736,21,9.75v6c0,0.414-0.336,0.75-0.75,0.75s-0.75-0.336-0.75-0.75v-4.835l-6.75,3.068v7.353l3.524-1.601
		c0.098-0.045,0.203-0.068,0.31-0.068c0.293,0,0.562,0.173,0.683,0.44c0.083,0.182,0.09,0.386,0.019,0.573s-0.209,0.336-0.392,0.419
		l-4.584,2.083c-0.017,0.008-0.056,0.021-0.073,0.026c-0.009,0.004-0.03,0.01-0.052,0.016C12.122,23.242,12.061,23.25,12,23.25z"/>
	<path d="M20.25,24c-0.414,0-0.75-0.336-0.75-0.75s0.336-0.75,0.75-0.75h1.189l-3.595-3.595c-0.142-0.142-0.22-0.33-0.22-0.53
		s0.078-0.389,0.22-0.53s0.33-0.22,0.53-0.22s0.389,0.078,0.53,0.22l3.595,3.595V20.25c0-0.414,0.336-0.75,0.75-0.75
		S24,19.836,24,20.25v3c0,0.087-0.016,0.174-0.047,0.258c-0.002,0.006-0.004,0.011-0.006,0.017c-0.08,0.195-0.229,0.343-0.412,0.419
		c-0.008,0.003-0.017,0.007-0.026,0.01C23.428,23.984,23.339,24,23.25,24H20.25z"/>
</g>
</svg>
