<?xml version="1.0" encoding="utf-8"?>
<!-- Generator: Adobe Illustrator 22.1.0, SVG Export Plug-In . SVG Version: 6.00 Build 0)  -->
<svg version="1.1" id="Layer_1" xmlns="http://www.w3.org/2000/svg" xmlns:xlink="http://www.w3.org/1999/xlink" x="0px" y="0px"
	 viewBox="0 0 24 24" style="enable-background:new 0 0 24 24;" xml:space="preserve">
<title>3d-pen-draw-box</title>
<g>
	<path d="M8.997,24c-0.052,0-0.105-0.006-0.156-0.017c-0.012-0.003-0.029-0.007-0.042-0.011c-0.034-0.009-0.062-0.019-0.089-0.03
		c-0.002-0.001-8.273-3.76-8.273-3.76c-0.267-0.121-0.44-0.389-0.44-0.683v-9c0-0.01,0-0.02,0.001-0.03
		c0.003-0.057,0.011-0.111,0.026-0.165c0.003-0.01,0.012-0.037,0.015-0.047c0.006-0.021,0.014-0.044,0.025-0.067
		c0.011-0.025,0.024-0.047,0.038-0.07c0.006-0.012,0.016-0.028,0.026-0.043c0.033-0.049,0.074-0.097,0.12-0.138
		c0.01-0.009,0.027-0.022,0.037-0.03C0.312,9.889,0.35,9.864,0.392,9.842c0.015-0.009,0.03-0.017,0.044-0.024l8.251-3.751
		C8.785,6.023,8.889,6,8.997,6s0.212,0.022,0.31,0.067l2.99,1.359c0.182,0.083,0.322,0.232,0.392,0.42s0.063,0.391-0.02,0.574
		c-0.121,0.267-0.389,0.44-0.683,0.44c-0.108,0-0.212-0.023-0.31-0.068l-2.68-1.218L2.559,10.5l1.5,0.682
		c0.376,0.171,0.543,0.617,0.372,0.993c-0.122,0.267-0.39,0.44-0.683,0.44c-0.107,0-0.211-0.022-0.31-0.067l-1.942-0.883v7.352
		l6.75,3.068V19.5c0-0.414,0.336-0.75,0.75-0.75s0.75,0.336,0.75,0.75v2.585l6.75-3.068V12c0-0.414,0.336-0.75,0.75-0.75
		s0.75,0.336,0.75,0.75v7.5c0,0.293-0.173,0.561-0.44,0.683c0,0-8.265,3.757-8.273,3.76c-0.026,0.011-0.064,0.024-0.104,0.034
		c-0.013,0.005-0.011,0.004-0.024,0.007C9.101,23.995,9.049,24,8.997,24z"/>
	<path d="M8.997,17.25c-1.654,0-3-1.346-3-3s1.346-3,3-3s3,1.346,3,3S10.651,17.25,8.997,17.25z M8.997,12.75
		c-0.827,0-1.5,0.673-1.5,1.5s0.673,1.5,1.5,1.5s1.5-0.673,1.5-1.5S9.824,12.75,8.997,12.75z"/>
	<path d="M14.247,10.5c-0.2,0-0.389-0.078-0.53-0.22c-0.202-0.202-0.272-0.496-0.181-0.767l1.061-3.182
		c0.036-0.11,0.099-0.211,0.181-0.293l5.378-5.378c0.425-0.425,0.99-0.659,1.591-0.659c0.598,0,1.161,0.232,1.584,0.652
		c0.885,0.885,0.885,2.312,0.008,3.189L17.959,9.22c-0.082,0.082-0.184,0.145-0.293,0.181l-3.182,1.06
		C14.408,10.487,14.328,10.5,14.247,10.5z M15.433,8.565l1.591-0.53l5.254-5.254c0.291-0.291,0.292-0.765,0.003-1.058
		c-0.145-0.145-0.333-0.223-0.534-0.223h0c-0.2,0-0.388,0.078-0.53,0.219l-5.253,5.253L15.433,8.565z"/>
</g>
</svg>
