<?xml version="1.0" encoding="utf-8"?>
<!-- Generator: Adobe Illustrator 22.1.0, SVG Export Plug-In . SVG Version: 6.00 Build 0)  -->
<svg version="1.1" id="Layer_1" xmlns="http://www.w3.org/2000/svg" xmlns:xlink="http://www.w3.org/1999/xlink" x="0px" y="0px"
	 viewBox="0 0 24 24" style="enable-background:new 0 0 24 24;" xml:space="preserve">
<title>3d-print-triangle-2</title>
<g>
	<path d="M12,24c-4.549,0-8.25-3.701-8.25-8.25c0-4.293,3.266-7.835,7.5-8.216V5.902C9.947,5.564,9,4.37,9,3H0.75
		C0.336,3,0,2.664,0,2.25S0.336,1.5,0.75,1.5H9V0.75C9,0.336,9.336,0,9.75,0h4.5C14.664,0,15,0.336,15,0.75V1.5h8.25
		C23.664,1.5,24,1.836,24,2.25S23.664,3,23.25,3H15c0,1.37-0.947,2.564-2.25,2.902V8.25C12.75,8.664,12.414,9,12,9
		c-3.722,0-6.75,3.028-6.75,6.75S8.278,22.5,12,22.5s6.75-3.028,6.75-6.75c0-0.414,0.336-0.75,0.75-0.75s0.75,0.336,0.75,0.75
		C20.25,20.299,16.549,24,12,24z M10.5,3c0,0.827,0.673,1.5,1.5,1.5s1.5-0.673,1.5-1.5V1.5h-3V3z"/>
	<path d="M18.75,13.226c-0.285,0-0.55-0.166-0.675-0.421c-0.472-0.969-1.178-1.823-2.042-2.468c-0.331-0.247-0.4-0.718-0.152-1.05
		c0.141-0.189,0.365-0.302,0.601-0.302c0.163,0,0.318,0.052,0.448,0.149c1.055,0.788,1.917,1.829,2.494,3.013
		c0.181,0.372,0.026,0.821-0.345,1.003C18.974,13.201,18.864,13.226,18.75,13.226z"/>
	<path d="M8.25,19.5c-0.273,0-0.524-0.148-0.656-0.386c-0.132-0.239-0.124-0.531,0.02-0.761l3.75-6C11.502,12.132,11.74,12,12,12
		c0.26,0,0.498,0.132,0.636,0.352l3.75,6c0.144,0.231,0.152,0.523,0.02,0.761c-0.132,0.238-0.383,0.386-0.656,0.386H8.25z
		 M14.397,18L12,14.165L9.603,18H14.397z"/>
</g>
</svg>
