<?xml version="1.0" encoding="utf-8"?>
<!-- Generator: Adobe Illustrator 22.1.0, SVG Export Plug-In . SVG Version: 6.00 Build 0)  -->
<svg version="1.1" id="Layer_1" xmlns="http://www.w3.org/2000/svg" xmlns:xlink="http://www.w3.org/1999/xlink" x="0px" y="0px"
	 viewBox="0 0 24 24" style="enable-background:new 0 0 24 24;" xml:space="preserve">
<title>3d-print-triangle-1</title>
<g>
	<path d="M3.75,21C1.682,21,0,19.318,0,17.25V3.75C0,1.682,1.682,0,3.75,0h13.5C19.318,0,21,1.682,21,3.75v9
		c0,0.414-0.336,0.75-0.75,0.75s-0.75-0.336-0.75-0.75V6h-2.25c-0.414,0-0.75-0.336-0.75-0.75s0.336-0.75,0.75-0.75h2.25V3.75
		c0-1.241-1.009-2.25-2.25-2.25H15v2.25C15,4.991,13.991,6,12.75,6H9v2.25c0,0.2-0.078,0.389-0.22,0.53l-1.5,1.5
		c-0.142,0.142-0.33,0.22-0.53,0.22s-0.389-0.078-0.53-0.22l-1.5-1.5C4.578,8.639,4.5,8.45,4.5,8.25v-3
		c0-0.414,0.336-0.75,0.75-0.75h7.5c0.414,0,0.75-0.336,0.75-0.75V1.5H3.75C2.509,1.5,1.5,2.509,1.5,3.75V4.5h0.75
		C2.664,4.5,3,4.836,3,5.25S2.664,6,2.25,6H1.5v10.5h3.359l5.026-7.18c0.136-0.194,0.366-0.31,0.615-0.31s0.478,0.116,0.614,0.31
		l2.098,2.997c0.115,0.164,0.159,0.363,0.124,0.561c-0.035,0.197-0.144,0.369-0.309,0.484c-0.126,0.089-0.275,0.136-0.43,0.136l0,0
		c-0.245,0-0.475-0.12-0.615-0.321L10.5,11.058L6.691,16.5H9.75c0.414,0,0.75,0.336,0.75,0.75S10.164,18,9.75,18H1.632
		c0.313,0.879,1.158,1.5,2.118,1.5h6c0.414,0,0.75,0.336,0.75,0.75S10.164,21,9.75,21H3.75z M6.75,8.689l0.75-0.75V6H6v1.939
		L6.75,8.689z"/>
	<path d="M20.25,24c-0.414,0-0.75-0.336-0.75-0.75v-7.5c0-0.414,0.336-0.75,0.75-0.75c2.068,0,3.75,1.682,3.75,3.75v1.5
		C24,22.318,22.318,24,20.25,24z M21,22.371c0.879-0.313,1.5-1.159,1.5-2.121v-1.5c0-0.962-0.621-1.808-1.5-2.121V22.371z"/>
	<path d="M14.25,23.996c-1.241,0-2.25-1.009-2.25-2.25c0-0.414,0.336-0.75,0.75-0.75s0.75,0.336,0.75,0.75s0.336,0.75,0.75,0.75
		h1.135c0.618-0.001,1.12-0.506,1.119-1.126c-0.001-0.618-0.505-1.12-1.123-1.12c-0.001,0-0.004,0-0.004,0
		c-0.409,0-0.745-0.333-0.75-0.741c-0.005-0.41,0.324-0.75,0.734-0.759c0.602-0.012,1.084-0.493,1.099-1.094
		c0.008-0.3-0.102-0.585-0.308-0.802c-0.207-0.218-0.486-0.342-0.786-0.349l-1.12-0.005c-0.411,0-0.747,0.336-0.747,0.75
		S13.164,18,12.75,18S12,17.664,12,17.25c0-1.241,1.009-2.25,2.25-2.25l1.138,0.005c0.713,0.018,1.368,0.307,1.85,0.815
		c0.483,0.508,0.739,1.173,0.721,1.874c-0.017,0.676-0.296,1.315-0.764,1.786c0.012,0.011,0.024,0.023,0.035,0.034
		c0.497,0.494,0.771,1.153,0.772,1.853c0.001,0.7-0.27,1.36-0.764,1.856c-0.494,0.497-1.153,0.771-1.853,0.772
		C15.386,23.996,14.25,23.996,14.25,23.996z"/>
</g>
</svg>
