<?xml version="1.0" encoding="utf-8"?>
<!-- Generator: Adobe Illustrator 22.1.0, SVG Export Plug-In . SVG Version: 6.00 Build 0)  -->
<svg version="1.1" id="Layer_1" xmlns="http://www.w3.org/2000/svg" xmlns:xlink="http://www.w3.org/1999/xlink" x="0px" y="0px"
	 viewBox="0 0 24 24" style="enable-background:new 0 0 24 24;" xml:space="preserve">
<title>3d-print-candy</title>
<g>
	<path d="M12,24c-4.549,0-8.25-3.701-8.25-8.25c0-4.293,3.266-7.835,7.5-8.216V5.902C9.947,5.564,9,4.37,9,3H0.75
		C0.336,3,0,2.664,0,2.25S0.336,1.5,0.75,1.5H9V0.75C9,0.336,9.336,0,9.75,0h4.5C14.664,0,15,0.336,15,0.75V1.5h8.25
		C23.664,1.5,24,1.836,24,2.25S23.664,3,23.25,3H15c0,1.37-0.947,2.564-2.25,2.902V8.25C12.75,8.664,12.414,9,12,9
		c-3.722,0-6.75,3.028-6.75,6.75S8.278,22.5,12,22.5s6.75-3.028,6.75-6.75c0-0.414,0.336-0.75,0.75-0.75s0.75,0.336,0.75,0.75
		C20.25,20.299,16.549,24,12,24z M10.5,3c0,0.827,0.673,1.5,1.5,1.5s1.5-0.673,1.5-1.5V1.5h-3V3z"/>
	<path d="M18.75,13.226c-0.285,0-0.55-0.166-0.675-0.421c-0.472-0.969-1.178-1.823-2.042-2.468c-0.331-0.247-0.4-0.718-0.152-1.05
		c0.141-0.189,0.365-0.302,0.601-0.302c0.163,0,0.318,0.052,0.448,0.149c1.055,0.788,1.917,1.829,2.494,3.013
		c0.181,0.372,0.026,0.821-0.345,1.003C18.974,13.201,18.864,13.226,18.75,13.226z"/>
	<path d="M10.792,21.25c-0.2,0-0.389-0.078-0.53-0.22c-0.292-0.292-0.292-0.768,0-1.061c0.423-0.423,0.43-0.92,0.012-2.087
		c-0.115-0.064-0.229-0.128-0.339-0.191c-0.649-0.369-1.171-0.651-1.501-0.651c-0.114,0-0.195,0.034-0.278,0.116
		c-0.141,0.141-0.33,0.219-0.53,0.219s-0.389-0.078-0.53-0.22c-0.292-0.292-0.292-0.768,0-1.061c0.369-0.369,0.81-0.556,1.313-0.556
		c0.392,0,0.789,0.115,1.177,0.281c-0.173-0.859-0.122-1.803,0.676-2.601c0.477-0.477,1.037-0.719,1.666-0.719
		c0.15,0,0.304,0.013,0.462,0.041c-0.128-0.758-0.074-1.667,0.706-2.446c0.142-0.142,0.33-0.22,0.53-0.22s0.389,0.078,0.53,0.22
		c0.142,0.141,0.22,0.33,0.22,0.53s-0.078,0.389-0.22,0.53c-0.423,0.423-0.43,0.92-0.013,2.087c0.115,0.064,0.229,0.128,0.34,0.191
		c0.648,0.369,1.171,0.651,1.501,0.651c0.114,0,0.195-0.034,0.277-0.116c0.142-0.142,0.33-0.22,0.53-0.22s0.389,0.078,0.53,0.22
		c0.292,0.292,0.292,0.768,0,1.061c-0.369,0.369-0.81,0.556-1.312,0.556c0,0,0,0,0,0c-0.392,0-0.789-0.115-1.177-0.281
		c0.174,0.859,0.123,1.803-0.676,2.601c-0.477,0.477-1.037,0.719-1.666,0.719c-0.15,0-0.303-0.014-0.462-0.041
		c0.128,0.759,0.074,1.667-0.706,2.446C11.181,21.172,10.992,21.25,10.792,21.25z M11.478,16.819
		c0.435,0.212,0.746,0.308,0.996,0.308c0.235,0,0.427-0.087,0.622-0.281c0.499-0.499,0.395-1.102-0.156-2.539
		c-0.435-0.212-0.746-0.307-0.996-0.307c-0.235,0-0.427,0.087-0.622,0.282C10.823,14.779,10.927,15.383,11.478,16.819z"/>
</g>
</svg>
