<?xml version="1.0" encoding="utf-8"?>
<!-- Generator: Adobe Illustrator 22.1.0, SVG Export Plug-In . SVG Version: 6.00 Build 0)  -->
<svg version="1.1" id="Layer_1" xmlns="http://www.w3.org/2000/svg" xmlns:xlink="http://www.w3.org/1999/xlink" x="0px" y="0px"
	 viewBox="0 0 24 24" style="enable-background:new 0 0 24 24;" xml:space="preserve">
<title>3d-print-monitor</title>
<g>
	<path d="M6.75,24c-0.072,0-0.145-0.011-0.218-0.034c-0.017-0.004-0.033-0.009-0.048-0.015l-5.997-2.249C0.196,21.593,0,21.311,0,21
		v-7.5c0-0.246,0.121-0.477,0.323-0.617c0.125-0.087,0.273-0.133,0.427-0.133c0.09,0,0.179,0.016,0.264,0.048l5.736,2.151
		l1.986-0.744c0.084-0.032,0.173-0.048,0.263-0.048c0.311,0,0.593,0.196,0.702,0.487c0.07,0.188,0.063,0.392-0.02,0.574
		c-0.083,0.182-0.232,0.322-0.42,0.392L7.5,16.27v5.898L12,20.48v-4.729c0-0.414,0.336-0.75,0.75-0.75s0.75,0.336,0.75,0.75V21
		c0,0.311-0.196,0.593-0.487,0.702l-6,2.25C7,23.957,6.985,23.962,6.969,23.966C6.902,23.987,6.825,24,6.75,24z M6,22.168V16.27
		l-4.5-1.688v5.898L6,22.168z"/>
	<path d="M12.75,13.5c-0.414,0-0.75-0.336-0.75-0.75S12.336,12,12.75,12h0.915l0.375-1.5h-2.79C10.009,10.5,9,9.491,9,8.25
		C9,7.836,9.336,7.5,9.75,7.5s0.75,0.336,0.75,0.75S10.836,9,11.25,9h10.5c0.414,0,0.75-0.336,0.75-0.75v-6
		c0-0.414-0.336-0.75-0.75-0.75h-10.5c-0.414,0-0.75,0.336-0.75,0.75S10.164,3,9.75,3S9,2.664,9,2.25C9,1.009,10.009,0,11.25,0h10.5
		C22.991,0,24,1.009,24,2.25v6c0,1.241-1.009,2.25-2.25,2.25h-2.79l0.375,1.5h0.915c0.414,0,0.75,0.336,0.75,0.75
		s-0.336,0.75-0.75,0.75H12.75z M17.79,12l-0.375-1.5h-1.829L15.21,12H17.79z"/>
	<path d="M3.75,12c-0.089,0-0.177-0.016-0.261-0.048c-0.007-0.002-0.014-0.005-0.021-0.007c-0.097-0.04-0.179-0.095-0.249-0.166
		L0.22,8.78C0.078,8.639,0,8.45,0,8.25s0.078-0.389,0.22-0.53C0.361,7.578,0.55,7.5,0.75,7.5s0.389,0.078,0.53,0.22L3,9.439V7.5
		c0-1.654,1.346-3,3-3h6.75c0.414,0,0.75,0.336,0.75,0.75S13.164,6,12.75,6H6C5.173,6,4.5,6.673,4.5,7.5v1.939l1.72-1.72
		C6.361,7.578,6.55,7.5,6.75,7.5s0.389,0.078,0.53,0.22C7.422,7.861,7.5,8.05,7.5,8.25S7.422,8.639,7.28,8.78L4.281,11.78
		c-0.07,0.07-0.152,0.125-0.245,0.163c-0.008,0.003-0.016,0.006-0.025,0.009C3.925,11.984,3.838,12,3.75,12z"/>
</g>
</svg>
