<?xml version="1.0" encoding="utf-8"?>
<!-- Generator: Adobe Illustrator 22.1.0, SVG Export Plug-In . SVG Version: 6.00 Build 0)  -->
<svg version="1.1" id="Layer_1" xmlns="http://www.w3.org/2000/svg" xmlns:xlink="http://www.w3.org/1999/xlink" x="0px" y="0px"
	 viewBox="0 0 24 24" style="enable-background:new 0 0 24 24;" xml:space="preserve">
<title>3d-print-ball</title>
<g>
	<path d="M3.75,24C1.682,24,0,22.318,0,20.25V3.75C0,1.682,1.682,0,3.75,0h16.5C22.318,0,24,1.682,24,3.75v16.5
		c0,2.068-1.682,3.75-3.75,3.75H3.75z M1.632,21c0.313,0.879,1.158,1.5,2.118,1.5h16.5c0.96,0,1.805-0.621,2.118-1.5H1.632z
		 M22.5,19.5V6h-2.25c-0.414,0-0.75-0.336-0.75-0.75s0.336-0.75,0.75-0.75h2.25V3.75c0-1.241-1.009-2.25-2.25-2.25H18v2.25
		C18,4.991,16.991,6,15.75,6H7.5v2.25c0,0.2-0.078,0.389-0.22,0.53l-1.5,1.5c-0.142,0.142-0.33,0.22-0.53,0.22
		s-0.389-0.078-0.53-0.22l-1.5-1.5C3.078,8.639,3,8.45,3,8.25v-3C3,4.836,3.336,4.5,3.75,4.5h12c0.414,0,0.75-0.336,0.75-0.75V1.5
		H3.75C2.509,1.5,1.5,2.509,1.5,3.75V19.5h6.538C6.76,18.371,6,16.733,6,15c0-3.308,2.692-6,6-6c3.308,0,6,2.692,6,6
		c0,1.733-0.76,3.371-2.038,4.5H22.5z M12,10.5c-2.481,0-4.5,2.019-4.5,4.5s2.019,4.5,4.5,4.5c2.481,0,4.5-2.019,4.5-4.5
		S14.481,10.5,12,10.5z M5.25,8.689L6,7.939V6H4.5v1.939L5.25,8.689z"/>
</g>
</svg>
