<?xml version="1.0" encoding="utf-8"?>
<!-- Generator: Adobe Illustrator 22.1.0, SVG Export Plug-In . SVG Version: 6.00 Build 0)  -->
<svg version="1.1" id="Layer_1" xmlns="http://www.w3.org/2000/svg" xmlns:xlink="http://www.w3.org/1999/xlink" x="0px" y="0px"
	 viewBox="0 0 24 24" style="enable-background:new 0 0 24 24;" xml:space="preserve">
<title>3d-print-monitor-1</title>
<g>
	<path d="M6,24c-0.414,0-0.75-0.336-0.75-0.75S5.586,22.5,6,22.5h1.615l0.5-3H3.75C1.682,19.5,0,17.818,0,15.75v-9
		C0,4.682,1.682,3,3.75,3C4.164,3,4.5,3.336,4.5,3.75S4.164,4.5,3.75,4.5C2.509,4.5,1.5,5.509,1.5,6.75V15h21V6.75
		c0-1.241-1.009-2.25-2.25-2.25c-0.414,0-0.75-0.336-0.75-0.75S19.836,3,20.25,3C22.318,3,24,4.682,24,6.75v9
		c0,2.068-1.682,3.75-3.75,3.75h-4.365l0.5,3H18c0.414,0,0.75,0.336,0.75,0.75S18.414,24,18,24H6z M14.865,22.5l-0.5-3H9.635l-0.5,3
		H14.865z M1.632,16.5C1.945,17.379,2.79,18,3.75,18h16.5c0.96,0,1.805-0.621,2.118-1.5H1.632z"/>
	<path d="M12,13.5c-0.065,0-0.129-0.008-0.192-0.025c-0.021-0.005-0.059-0.02-0.078-0.029c-0.029-0.009-0.066-0.025-0.103-0.045
		l-5.25-3C6.145,10.268,6,10.018,6,9.75v-6c0-0.013,0.001-0.027,0.002-0.041c0.002-0.048,0.009-0.093,0.019-0.137
		c0.002-0.01,0.005-0.019,0.007-0.028C6.041,3.5,6.062,3.447,6.092,3.393c0.005-0.009,0.021-0.035,0.027-0.044
		c0.021-0.034,0.049-0.07,0.079-0.104C6.209,3.233,6.22,3.221,6.232,3.209C6.267,3.176,6.305,3.146,6.344,3.12
		C6.347,3.118,6.38,3.098,6.38,3.098c0.006-0.003,5.248-2.999,5.248-2.999C11.741,0.034,11.87,0,12,0s0.259,0.034,0.372,0.099
		c0,0,5.258,3.005,5.262,3.007c0.01,0.006,0.02,0.013,0.029,0.02c0.041,0.027,0.073,0.053,0.104,0.083
		c0.007,0.007,0.025,0.026,0.032,0.033c0.034,0.038,0.062,0.074,0.085,0.112c0.004,0.006,0.02,0.033,0.024,0.039
		c0.03,0.056,0.052,0.109,0.066,0.162c0.001,0.003,0.001,0.005,0.002,0.008c0.012,0.047,0.019,0.096,0.022,0.149
		C17.999,3.725,18,3.738,18,3.75v6c0,0.269-0.145,0.518-0.378,0.651L12.375,13.4c-0.038,0.022-0.076,0.037-0.114,0.051
		c-0.013,0.007-0.037,0.016-0.061,0.023C12.129,13.492,12.065,13.5,12,13.5z M12.75,11.458l3.75-2.143V5.042l-3.75,2.143V11.458z
		 M11.25,11.458V7.185L7.5,5.042v4.272L11.25,11.458z M12,5.886l3.738-2.136L12,1.614L8.262,3.75L12,5.886z"/>
</g>
</svg>
