<?xml version="1.0" encoding="utf-8"?>
<!-- Generator: Adobe Illustrator 22.1.0, SVG Export Plug-In . SVG Version: 6.00 Build 0)  -->
<svg version="1.1" id="Layer_1" xmlns="http://www.w3.org/2000/svg" xmlns:xlink="http://www.w3.org/1999/xlink" x="0px" y="0px"
	 viewBox="0 0 24 24" style="enable-background:new 0 0 24 24;" xml:space="preserve">
<title>3d-pen</title>
<g>
	<path d="M0.724,24.027c-0.2,0-0.389-0.078-0.53-0.22c-0.292-0.292-0.292-0.768,0-1.061l2.4-2.4l-1.645-1.645
		c-0.85-0.842-0.888-2.2-0.086-3.091c0.727-0.806,2.354-2.549,4.077-4.394l0.026-0.028c1.697-1.817,3.446-3.69,4.638-4.991
		c0.266-0.459,0.583-0.874,0.94-1.231c0.244-0.244,0.521-0.474,0.824-0.684c1.143-1.236,1.916-2.053,2.363-2.498
		c0.026-0.026,0.06-0.061,0.095-0.095C14.943,0.6,16.417,0,17.976,0l0.071,0c1.586,0.019,3.069,0.655,4.176,1.79
		c0.02,0.019,0.055,0.054,0.09,0.09C23.42,3.015,24.02,4.513,24,6.099s-0.655,3.069-1.79,4.177c-0.451,0.451-1.295,1.249-2.507,2.37
		c-0.207,0.295-0.433,0.565-0.672,0.805c-0.004,0.004-0.016,0.016-0.02,0.019c-0.344,0.343-0.751,0.655-1.202,0.919
		c-1.303,1.194-3.17,2.938-4.977,4.626c-1.865,1.741-3.626,3.386-4.442,4.123c-0.413,0.373-0.946,0.578-1.501,0.578
		c-0.603,0-1.169-0.236-1.593-0.666l-1.641-1.642l-2.4,2.4C1.112,23.949,0.924,24.027,0.724,24.027z M6.359,21.991
		c0.143,0.144,0.331,0.223,0.531,0.223c0.183,0,0.359-0.068,0.496-0.191c0.802-0.724,2.561-2.366,4.423-4.105
		c0.986-0.921,1.987-1.855,2.905-2.709c-1.575-0.019-3.052-0.641-4.168-1.757c-1.112-1.112-1.732-2.615-1.751-4.169
		c-0.858,0.923-1.798,1.929-2.723,2.92c-1.736,1.859-3.368,3.606-4.094,4.412c-0.266,0.294-0.252,0.744,0.03,1.023
		c0,0,2.184,2.185,2.187,2.188L6.359,21.991z M14.788,4.711c-1.203,0-2.334,0.467-3.182,1.316c-1.754,1.755-1.754,4.61,0.001,6.364
		c0.85,0.85,1.98,1.318,3.182,1.318c1.202,0,2.332-0.468,3.182-1.318c0.853-0.856,1.318-1.984,1.318-3.182
		c0-1.202-0.468-2.331-1.318-3.181C17.118,5.177,15.989,4.711,14.788,4.711z M14.796,3.217c1.602,0,3.105,0.62,4.233,1.747
		c1.138,1.141,1.76,2.645,1.76,4.245c0,0.123-0.004,0.248-0.012,0.373c0.149-0.144,0.276-0.268,0.38-0.373
		c0.854-0.833,1.33-1.943,1.344-3.128s-0.434-2.305-1.261-3.153c-0.025-0.026-0.05-0.051-0.076-0.076
		c-0.838-0.859-1.949-1.337-3.134-1.351l-0.056,0c-1.163,0-2.263,0.448-3.097,1.261c-0.027,0.026-0.052,0.051-0.077,0.077
		c-0.106,0.106-0.234,0.236-0.383,0.39C14.543,3.221,14.669,3.217,14.796,3.217z"/>
	<path d="M14.791,10.334c-0.301,0-0.584-0.118-0.796-0.33s-0.329-0.495-0.329-0.796c0-0.3,0.118-0.583,0.33-0.795
		c0.212-0.212,0.494-0.329,0.794-0.329c0.302,0,0.584,0.117,0.796,0.33c0.212,0.212,0.329,0.495,0.329,0.795
		C15.916,9.83,15.411,10.334,14.791,10.334C14.791,10.334,14.791,10.334,14.791,10.334z"/>
	<path d="M6.307,19.505c-0.2,0-0.389-0.078-0.53-0.22l-1.061-1.061c-0.292-0.292-0.292-0.768,0-1.061
		c0.142-0.142,0.33-0.22,0.53-0.22s0.389,0.078,0.53,0.22l1.061,1.061c0.292,0.292,0.292,0.768,0,1.061
		C6.695,19.427,6.507,19.505,6.307,19.505z"/>
</g>
</svg>
