<?xml version="1.0" encoding="utf-8"?>
<!-- Generator: Adobe Illustrator 22.1.0, SVG Export Plug-In . SVG Version: 6.00 Build 0)  -->
<svg version="1.1" id="Layer_1" xmlns="http://www.w3.org/2000/svg" xmlns:xlink="http://www.w3.org/1999/xlink" x="0px" y="0px"
	 viewBox="0 0 24 24" style="enable-background:new 0 0 24 24;" xml:space="preserve">
<title>3d-print-reel</title>
<g>
	<path d="M13.197,23.997c-0.802,0-1.556-0.312-2.121-0.877c-0.566-0.566-0.878-1.319-0.878-2.121s0.312-1.556,0.878-2.121
		l0.956-0.957c-0.39,0.052-0.783,0.078-1.176,0.078c-2.377,0-4.617-0.92-6.314-2.593c-0.016-0.011-0.033-0.025-0.05-0.043
		c-0.014-0.013-0.028-0.031-0.042-0.05c-1.668-1.683-2.594-3.93-2.594-6.314c0-2.38,0.923-4.623,2.599-6.321
		C4.467,2.662,4.48,2.647,4.491,2.635c0.016-0.016,0.031-0.028,0.045-0.039c1.697-1.676,3.94-2.598,6.319-2.598
		c2.382,0,4.627,0.924,6.325,2.604c0.014,0.011,0.027,0.022,0.038,0.033c0.014,0.014,0.026,0.028,0.036,0.041
		c1.678,1.697,2.601,3.941,2.601,6.322c0,2.381-0.923,4.624-2.6,6.322c-0.012,0.016-0.024,0.031-0.036,0.042
		c-0.016,0.016-0.032,0.03-0.047,0.04c-0.584,0.579-1.255,1.081-1.984,1.482l-3.052,3.052c-0.585,0.585-0.585,1.537,0,2.122
		c0.283,0.283,0.66,0.439,1.061,0.439s0.777-0.156,1.061-0.439l1.591-1.591c0.707-0.708,1.649-1.099,2.65-1.1
		c1.003,0,1.944,0.389,2.652,1.096c0.736,0.735,1.136,1.752,1.098,2.792c-0.015,0.405-0.342,0.723-0.744,0.723
		c0,0-0.032-0.001-0.038-0.001c-0.409-0.015-0.733-0.364-0.718-0.777c0.023-0.624-0.217-1.234-0.659-1.675
		c-0.425-0.424-0.99-0.658-1.59-0.658c-0.603,0-1.167,0.235-1.592,0.66l-1.591,1.592C14.753,23.685,13.999,23.997,13.197,23.997z
		 M6.112,14.803c1.14,0.932,2.533,1.51,3.994,1.657v-3.789c-0.469-0.096-0.915-0.281-1.316-0.547L6.112,14.803z M11.606,16.46
		c1.46-0.147,2.854-0.725,3.993-1.657l-2.678-2.678c-0.4,0.266-0.846,0.451-1.315,0.547V16.46z M16.66,13.743
		c0.932-1.14,1.511-2.534,1.658-3.994h-3.789c-0.096,0.469-0.281,0.915-0.547,1.316L16.66,13.743z M3.394,9.748
		c0.147,1.46,0.725,2.854,1.657,3.994l2.678-2.678c-0.266-0.401-0.451-0.847-0.547-1.316H3.394z M10.856,6.748
		c-1.241,0-2.25,1.009-2.25,2.25s1.009,2.25,2.25,2.25s2.25-1.009,2.25-2.25S12.096,6.748,10.856,6.748z M18.318,8.248
		c-0.147-1.46-0.726-2.854-1.657-3.994l-2.678,2.678c0.266,0.401,0.451,0.847,0.547,1.316H18.318z M7.183,8.248
		c0.096-0.469,0.281-0.915,0.547-1.315L5.051,4.255c-0.932,1.14-1.51,2.533-1.657,3.993H7.183z M8.79,5.872
		c0.401-0.266,0.847-0.451,1.316-0.547V1.536C8.645,1.683,7.251,2.262,6.111,3.194L8.79,5.872z M11.606,5.325
		c0.469,0.096,0.915,0.281,1.316,0.547L15.6,3.194c-1.14-0.932-2.533-1.51-3.994-1.657V5.325z"/>
</g>
</svg>
