<?xml version="1.0" encoding="utf-8"?>
<!-- Generator: Adobe Illustrator 22.1.0, SVG Export Plug-In . SVG Version: 6.00 Build 0)  -->
<svg version="1.1" id="Layer_1" xmlns="http://www.w3.org/2000/svg" xmlns:xlink="http://www.w3.org/1999/xlink" x="0px" y="0px"
	 viewBox="0 0 24 24" style="enable-background:new 0 0 24 24;" xml:space="preserve">
<title>3d-print-fail</title>
<g>
	<path d="M17.25,23.998c-3.722,0-6.75-3.028-6.75-6.75s3.028-6.75,6.75-6.75S24,13.526,24,17.248S20.972,23.998,17.25,23.998z
		 M17.25,11.998c-2.895,0-5.25,2.355-5.25,5.25s2.355,5.25,5.25,5.25s5.25-2.355,5.25-5.25S20.145,11.998,17.25,11.998z"/>
	<path d="M19.5,20.247c-0.2,0-0.389-0.078-0.53-0.22l-1.72-1.72l-1.72,1.72c-0.142,0.142-0.33,0.22-0.53,0.22
		s-0.389-0.078-0.53-0.22c-0.292-0.292-0.292-0.768,0-1.061l1.72-1.72l-1.72-1.72c-0.292-0.292-0.292-0.768,0-1.061
		c0.142-0.142,0.33-0.22,0.53-0.22s0.389,0.078,0.53,0.22l1.72,1.72l1.72-1.72c0.142-0.142,0.33-0.22,0.53-0.22
		s0.389,0.078,0.53,0.22c0.292,0.292,0.292,0.768,0,1.061l-1.72,1.72l1.72,1.72c0.292,0.292,0.292,0.768,0,1.061
		C19.889,20.169,19.7,20.247,19.5,20.247z"/>
	<path d="M3.75,21C1.682,21,0,19.318,0,17.25V3.75C0,1.682,1.682,0,3.75,0h13.5C19.318,0,21,1.682,21,3.75v4.5
		C21,8.664,20.664,9,20.25,9S19.5,8.664,19.5,8.25V6h-2.25c-0.414,0-0.75-0.336-0.75-0.75s0.336-0.75,0.75-0.75h2.25V3.75
		c0-1.241-1.009-2.25-2.25-2.25H15v2.25C15,4.991,13.991,6,12.75,6H9v2.25c0,0.2-0.078,0.389-0.22,0.53l-1.5,1.5
		c-0.142,0.142-0.33,0.22-0.53,0.22s-0.389-0.078-0.53-0.22l-1.5-1.5C4.578,8.639,4.5,8.45,4.5,8.25v-3
		c0-0.414,0.336-0.75,0.75-0.75h7.5c0.414,0,0.75-0.336,0.75-0.75V1.5H3.75C2.509,1.5,1.5,2.509,1.5,3.75V4.5h0.75
		C2.664,4.5,3,4.836,3,5.25S2.664,6,2.25,6H1.5v10.5h6.75C8.664,16.5,9,16.836,9,17.25S8.664,18,8.25,18H1.632
		c0.313,0.879,1.158,1.5,2.118,1.5H9c0.414,0,0.75,0.336,0.75,0.75S9.414,21,9,21H3.75z M6.75,8.689l0.75-0.75V6H6v1.939L6.75,8.689
		z"/>
</g>
</svg>
