<?xml version="1.0" encoding="utf-8"?>
<!-- Generator: Adobe Illustrator 22.1.0, SVG Export Plug-In . SVG Version: 6.00 Build 0)  -->
<svg version="1.1" id="Layer_1" xmlns="http://www.w3.org/2000/svg" xmlns:xlink="http://www.w3.org/1999/xlink" x="0px" y="0px"
	 viewBox="0 0 24 24" style="enable-background:new 0 0 24 24;" xml:space="preserve">
<title>3d-print-tshirt</title>
<g>
	<path d="M12,24c-4.549,0-8.25-3.701-8.25-8.25c0-4.293,3.266-7.835,7.5-8.216V5.902C9.947,5.564,9,4.37,9,3H0.75
		C0.336,3,0,2.664,0,2.25S0.336,1.5,0.75,1.5H9V0.75C9,0.336,9.336,0,9.75,0h4.5C14.664,0,15,0.336,15,0.75V1.5h8.25
		C23.664,1.5,24,1.836,24,2.25S23.664,3,23.25,3H15c0,1.37-0.947,2.564-2.25,2.902V8.25C12.75,8.664,12.414,9,12,9
		c-3.722,0-6.75,3.028-6.75,6.75S8.278,22.5,12,22.5s6.75-3.028,6.75-6.75c0-0.414,0.336-0.75,0.75-0.75s0.75,0.336,0.75,0.75
		C20.25,20.299,16.549,24,12,24z M10.5,3c0,0.827,0.673,1.5,1.5,1.5s1.5-0.673,1.5-1.5V1.5h-3V3z"/>
	<path d="M18.75,13.226c-0.285,0-0.55-0.166-0.675-0.421c-0.472-0.969-1.178-1.823-2.042-2.468c-0.331-0.247-0.4-0.718-0.152-1.05
		c0.141-0.189,0.365-0.302,0.601-0.302c0.163,0,0.318,0.052,0.448,0.149c1.055,0.788,1.917,1.829,2.494,3.013
		c0.181,0.372,0.026,0.821-0.345,1.003C18.974,13.201,18.864,13.226,18.75,13.226z"/>
	<path d="M9.75,20.25C9.336,20.25,9,19.914,9,19.5v-4.939l-0.97,0.97c-0.142,0.142-0.33,0.22-0.53,0.22s-0.389-0.078-0.53-0.22
		c-0.292-0.292-0.292-0.768,0-1.061l2.25-2.25c0.07-0.07,0.153-0.125,0.246-0.164c0.008-0.003,0.017-0.007,0.027-0.01
		C9.577,12.015,9.663,12,9.75,12h4.5c0.087,0,0.174,0.016,0.258,0.047c0.006,0.002,0.011,0.004,0.017,0.006
		c0.104,0.042,0.186,0.097,0.256,0.167l2.25,2.25c0.292,0.292,0.292,0.768,0,1.061c-0.142,0.142-0.33,0.22-0.53,0.22
		s-0.389-0.078-0.53-0.22L15,14.561V19.5c0,0.414-0.336,0.75-0.75,0.75H9.75z M13.5,18.75V13.5h-3v5.25H13.5z"/>
</g>
</svg>
