<?xml version="1.0" encoding="utf-8"?>
<!-- Generator: Adobe Illustrator 22.1.0, SVG Export Plug-In . SVG Version: 6.00 Build 0)  -->
<svg version="1.1" id="Layer_1" xmlns="http://www.w3.org/2000/svg" xmlns:xlink="http://www.w3.org/1999/xlink" x="0px" y="0px"
	 viewBox="0 0 24 24" style="enable-background:new 0 0 24 24;" xml:space="preserve">
<title>3d-print-warning</title>
<g>
	<circle cx="17.251" cy="20.625" r="1.125"/>
	<path d="M17.251,18.75c-0.414,0-0.75-0.336-0.75-0.75v-3c0-0.414,0.336-0.75,0.75-0.75s0.75,0.336,0.75,0.75v3
		C18.001,18.414,17.665,18.75,17.251,18.75z"/>
	<path d="M13.025,24c-1.392,0-2.524-1.132-2.524-2.524c0-0.389,0.092-0.78,0.266-1.128l4.226-8.452
		c0.301-0.603,0.819-1.052,1.459-1.266c0.26-0.087,0.53-0.131,0.801-0.131c0.392,0,0.771,0.09,1.126,0.267
		c0.486,0.242,0.887,0.644,1.13,1.13l4.226,8.452c0.301,0.603,0.35,1.288,0.136,1.927c-0.213,0.64-0.663,1.158-1.266,1.459
		C22.257,23.908,21.867,24,21.477,24H13.025z M17.252,11.999c-0.11,0-0.219,0.018-0.326,0.053c-0.259,0.086-0.469,0.269-0.592,0.514
		l-4.226,8.452c-0.071,0.141-0.108,0.299-0.108,0.457c0,0.565,0.459,1.024,1.024,1.024h8.452c0.158,0,0.316-0.037,0.458-0.108
		c0.245-0.122,0.427-0.333,0.514-0.592s0.067-0.537-0.055-0.781l-4.226-8.452c-0.099-0.197-0.261-0.36-0.458-0.459
		C17.564,12.036,17.41,11.999,17.252,11.999z"/>
	<path d="M3.751,21c-2.068,0-3.75-1.682-3.75-3.75V3.75C0.001,1.682,1.683,0,3.751,0h13.5c2.068,0,3.75,1.682,3.75,3.75v4.5
		c0,0.414-0.336,0.75-0.75,0.75s-0.75-0.336-0.75-0.75V6h-2.25c-0.414,0-0.75-0.336-0.75-0.75s0.336-0.75,0.75-0.75h2.25V3.75
		c0-1.241-1.009-2.25-2.25-2.25h-2.25v2.25c0,1.241-1.009,2.25-2.25,2.25h-3.75v2.25c0,0.2-0.078,0.389-0.22,0.53l-1.5,1.5
		c-0.142,0.142-0.33,0.22-0.53,0.22s-0.389-0.078-0.53-0.22l-1.5-1.5c-0.142-0.142-0.22-0.33-0.22-0.53v-3
		c0-0.414,0.336-0.75,0.75-0.75h7.5c0.414,0,0.75-0.336,0.75-0.75V1.5h-9.75c-1.241,0-2.25,1.009-2.25,2.25V4.5h0.75
		c0.414,0,0.75,0.336,0.75,0.75S2.665,6,2.251,6h-0.75v10.5h6.75c0.414,0,0.75,0.336,0.75,0.75S8.665,18,8.251,18H1.633
		c0.313,0.879,1.158,1.5,2.118,1.5h5.25c0.414,0,0.75,0.336,0.75,0.75S9.415,21,9.001,21H3.751z M6.751,8.689l0.75-0.75V6h-1.5
		v1.939L6.751,8.689z"/>
</g>
</svg>
