<?xml version="1.0" encoding="utf-8"?>
<!-- Generator: Adobe Illustrator 22.1.0, SVG Export Plug-In . SVG Version: 6.00 Build 0)  -->
<svg version="1.1" id="Layer_1" xmlns="http://www.w3.org/2000/svg" xmlns:xlink="http://www.w3.org/1999/xlink" x="0px" y="0px"
	 viewBox="0 0 24 24" style="enable-background:new 0 0 24 24;" xml:space="preserve">
<title>3d-pen-box</title>
<g>
	<path d="M9.747,24.002c-0.074,0-0.148-0.012-0.225-0.037c-0.019-0.005-0.037-0.01-0.054-0.017l-7.5-3
		c-0.286-0.115-0.471-0.388-0.471-0.696v-9c0-0.008,0-0.016,0.001-0.025c0.002-0.051,0.009-0.1,0.02-0.148
		c0.003-0.013,0.011-0.039,0.015-0.051c0.009-0.03,0.023-0.068,0.041-0.104c0.01-0.02,0.019-0.037,0.03-0.055
		c0.016-0.027,0.038-0.06,0.064-0.091c0.01-0.013,0.021-0.026,0.033-0.039c0.028-0.03,0.059-0.058,0.094-0.084
		c0.012-0.01,0.025-0.02,0.037-0.027c0.008-0.005,0.016-0.01,0.024-0.014c0.041-0.025,0.076-0.042,0.112-0.057l7.501-3
		C9.558,7.52,9.651,7.502,9.747,7.502c0.309,0,0.582,0.185,0.697,0.471c0.154,0.384-0.034,0.821-0.418,0.975l-5.759,2.304
		l5.481,2.192l7.222-2.889c0.089-0.036,0.183-0.054,0.278-0.054c0.151,0,0.296,0.045,0.421,0.129
		c0.206,0.14,0.329,0.372,0.329,0.621v9c0,0.309-0.185,0.582-0.472,0.697l-7.5,3c-0.016,0.007-0.034,0.012-0.053,0.017
		C9.898,23.989,9.823,24.002,9.747,24.002z M10.497,22.144l6-2.4v-7.384l-6,2.4V22.144z M8.997,22.144v-7.384l-6-2.4v7.384
		L8.997,22.144z"/>
	<path d="M11.997,10.041c-0.222,0-0.431-0.097-0.573-0.266c-0.129-0.153-0.191-0.347-0.174-0.547c0.017-0.2,0.111-0.381,0.264-0.51
		l1.72-1.451l-0.484-0.574c-0.259-0.307-0.382-0.696-0.348-1.095c0.034-0.399,0.222-0.761,0.528-1.019l4.584-3.87
		c0.025-0.022,0.063-0.055,0.103-0.087c0.529-0.423,1.194-0.657,1.872-0.657c0.918,0,1.773,0.41,2.344,1.124
		c1.032,1.289,0.824,3.179-0.463,4.213l-4.572,3.861c-0.271,0.228-0.614,0.354-0.966,0.354c-0.042,0-0.085-0.002-0.128-0.005
		c-0.4-0.034-0.762-0.222-1.021-0.528l-0.483-0.573l-1.72,1.451C12.346,9.978,12.174,10.041,11.997,10.041z M19.489,1.466
		c-0.344,0-0.667,0.113-0.935,0.328c-0.02,0.016-4.658,3.932-4.658,3.932l1.934,2.292l4.583-3.869
		c0.661-0.529,0.766-1.475,0.249-2.121C20.377,1.671,19.949,1.466,19.489,1.466z"/>
</g>
</svg>
