<svg xmlns="http://www.w3.org/2000/svg" viewBox="0 0 24 24"><title>car-repair-tow-truck</title><path d="M22.423,15.782H10.392a.742.742,0,0,1-.742-.742V8.606A1.486,1.486,0,0,0,8.165,7.122H5.483a1.505,1.505,0,0,0-1.312.807L1.749,12.816a.246.246,0,0,1-.076.09L.453,13.8A1.2,1.2,0,0,0,0,14.752v4.741A1.238,1.238,0,0,0,1.237,20.73H1.5a.247.247,0,0,0,.247-.272,2.036,2.036,0,0,1-.012-.222,2.969,2.969,0,1,1,5.938,0,2.036,2.036,0,0,1-.012.222.247.247,0,0,0,.247.272h7.448a.247.247,0,0,0,.247-.272,2.036,2.036,0,0,1-.012-.222,2.969,2.969,0,1,1,5.938,0,2.036,2.036,0,0,1-.012.222.247.247,0,0,0,.247.272H23.01a.743.743,0,0,0,.743-.742V17.019A1.288,1.288,0,0,0,22.423,15.782ZM7.67,11.684a.247.247,0,0,1-.247.248H4.794a.247.247,0,0,1-.221-.357L5.729,9.239A.249.249,0,0,1,5.951,9.1H7.423a.247.247,0,0,1,.247.248Z"/><path d="M11.382,14.3H12.85a.245.245,0,0,0,.192-.092L19.6,6.1a.247.247,0,0,1,.44.156V7.5a.247.247,0,0,1-.147.226,3.142,3.142,0,0,0-1.832,2.848,3.074,3.074,0,0,0,2.969,3.093A2.76,2.76,0,0,0,24,10.942a.99.99,0,1,0-1.979,0c0,.689-.758.742-.99.742a1.121,1.121,0,0,1,0-2.227.99.99,0,0,0,.99-.989V3.024c0-1.417-1.116-1.4-1.621-1.019L11.22,9.9a.251.251,0,0,0-.086.188V14.05A.248.248,0,0,0,11.382,14.3Z"/><circle cx="4.701" cy="20.236" r="1.979"/><circle cx="18.557" cy="20.236" r="1.979"/></svg>