<?xml version="1.0" encoding="utf-8"?>
<!-- Generator: Adobe Illustrator 22.1.0, SVG Export Plug-In . SVG Version: 6.00 Build 0)  -->
<svg version="1.1" id="Regular" xmlns="http://www.w3.org/2000/svg" xmlns:xlink="http://www.w3.org/1999/xlink" x="0px" y="0px"
	 viewBox="0 0 24 24" style="enable-background:new 0 0 24 24;" xml:space="preserve">
<title>outdoors-bird-house</title>
<g>
	<path d="M20.25,23.75c-0.414,0-0.75-0.336-0.75-0.75v-3.75h-0.75c-1.241,0-2.25-1.009-2.25-2.25v-4.5c0-1.241,1.009-2.25,2.25-2.25
		h3c1.241,0,2.25,1.009,2.25,2.25V17c0,1.241-1.009,2.25-2.25,2.25H21V23C21,23.414,20.664,23.75,20.25,23.75z M18.75,11.75
		c-0.414,0-0.75,0.337-0.75,0.75V17c0,0.414,0.336,0.75,0.75,0.75h3c0.414,0,0.75-0.336,0.75-0.75v-4.5
		c0-0.414-0.336-0.75-0.75-0.75H18.75z"/>
	<path d="M3,23.75c-0.827,0-1.5-0.673-1.5-1.5V6.837L1.248,7.061C1.111,7.183,0.934,7.25,0.75,7.25c-0.214,0-0.418-0.092-0.56-0.251
		c-0.133-0.15-0.2-0.343-0.188-0.543c0.012-0.2,0.1-0.383,0.25-0.516l5.75-5.114c0.413-0.367,0.944-0.569,1.496-0.569
		c0.552,0,1.083,0.202,1.495,0.569l5.755,5.114c0.15,0.133,0.239,0.317,0.251,0.516c0.012,0.2-0.055,0.393-0.188,0.543
		c-0.142,0.16-0.346,0.252-0.561,0.252c-0.184,0-0.361-0.067-0.498-0.189L13.5,6.837V22.25c0,0.827-0.673,1.5-1.5,1.5H3z M3,22.25h9
		V5.504L7.996,1.947c-0.138-0.123-0.315-0.19-0.499-0.19S7.136,1.824,6.999,1.946L3,5.503V22.25z"/>
	<path d="M6,17.75c-0.827,0-1.5-0.673-1.5-1.5v-4.5c0-0.827,0.673-1.5,1.5-1.5h3c0.827,0,1.5,0.673,1.5,1.5v4.5
		c0,0.827-0.673,1.5-1.5,1.5H6z M6,16.25h3v-4.5H6V16.25z"/>
</g>
</svg>
