<svg xmlns="http://www.w3.org/2000/svg" viewBox="0 0 24 24"><defs><style>.a,.b{fill:none;stroke:currentColor;stroke-linecap:round;stroke-linejoin:round;}.a{stroke-width:0.958px;}</style></defs><title>Medium-new</title><rect class="a" x="0.5" y="0.5" width="23" height="23"/><path class="b" d="M8.741,18.229V18.5H4v-.271l2.332-2.892Z"/><path class="b" d="M12.769,14.461,8.816,5.5H4v.371C7.346,9.9,6.305,8.194,11.029,18.5h.489l4.087-13H20.03v.371L18.648,7.105a.377.377,0,0,0-.143.361v9.068a.377.377,0,0,0,.143.361L20,18.229V18.5H13.709v-.271l1.163-1.364C15,16.737,15,16.7,15,16.5v-9"/><line class="b" x1="6.332" y1="15.337" x2="6.332" y2="8.749"/></svg>