<?xml version="1.0" encoding="utf-8"?>
<!-- Generator: Adobe Illustrator 22.1.0, SVG Export Plug-In . SVG Version: 6.00 Build 0)  -->
<svg version="1.1" id="Regular" xmlns="http://www.w3.org/2000/svg" xmlns:xlink="http://www.w3.org/1999/xlink" x="0px" y="0px"
	 viewBox="0 0 24 24" style="enable-background:new 0 0 24 24;" xml:space="preserve">
<title>temperature-thermometer-low</title>
<g>
	<path d="M9.44,24.016c-1.495,0-2.922-0.637-3.916-1.748c-1.86-2.079-1.777-5.2,0.163-7.175V3.746c0-2.068,1.682-3.75,3.75-3.75
		s3.75,1.682,3.75,3.75v11.348c0.056,0.057,0.11,0.115,0.163,0.175c1.93,2.157,1.744,5.483-0.413,7.413
		C11.975,23.542,10.733,24.016,9.44,24.016z M9.438,1.496c-1.241,0-2.25,1.009-2.25,2.25v11.668c0,0.213-0.091,0.417-0.25,0.559
		c-0.745,0.667-1.187,1.585-1.243,2.587c-0.056,1.001,0.281,1.963,0.947,2.708c0.709,0.793,1.729,1.248,2.797,1.248
		c0.924,0,1.811-0.339,2.498-0.953c0.745-0.667,1.186-1.585,1.242-2.586c0.056-1.001-0.281-1.963-0.947-2.708
		c-0.094-0.104-0.193-0.204-0.295-0.295c-0.159-0.142-0.25-0.346-0.25-0.559V3.746C11.688,2.506,10.678,1.496,9.438,1.496z"/>
	<path d="M9.438,20.996c-1.241,0-2.25-1.009-2.25-2.25c0-0.96,0.615-1.808,1.5-2.121v-1.629c0-0.414,0.336-0.75,0.75-0.75
		s0.75,0.336,0.75,0.75v1.629c0.885,0.313,1.5,1.161,1.5,2.121C11.688,19.987,10.678,20.996,9.438,20.996z M9.438,17.996
		c-0.414,0-0.75,0.336-0.75,0.75s0.336,0.75,0.75,0.75s0.75-0.336,0.75-0.75S9.851,17.996,9.438,17.996z"/>
	<path d="M16.188,4.496c-0.414,0-0.75-0.336-0.75-0.75s0.336-0.75,0.75-0.75h5.25c0.414,0,0.75,0.336,0.75,0.75
		s-0.336,0.75-0.75,0.75H16.188z"/>
	<path d="M16.188,8.996c-0.414,0-0.75-0.336-0.75-0.75s0.336-0.75,0.75-0.75h2.25c0.414,0,0.75,0.336,0.75,0.75
		s-0.336,0.75-0.75,0.75H16.188z"/>
	<path d="M16.188,13.496c-0.414,0-0.75-0.336-0.75-0.75s0.336-0.75,0.75-0.75h5.25c0.414,0,0.75,0.336,0.75,0.75
		s-0.336,0.75-0.75,0.75H16.188z"/>
</g>
</svg>
