<svg xmlns="http://www.w3.org/2000/svg" viewBox="0 0 24 24"><defs><style>.a{fill:none;stroke:#000;stroke-linecap:round;stroke-linejoin:round;}</style></defs><title>crime-man-riot-1</title><path class="a" d="M11,9a1.089,1.089,0,0,0-1-.5A1.089,1.089,0,0,0,9,9"/><path class="a" d="M15,9a1.089,1.089,0,0,0-1-.5A1.089,1.089,0,0,0,13,9"/><path class="a" d="M12,11.5c2.209,0,4,1.015,4,3.5a10.27,10.27,0,0,1-3.693,8.279.5.5,0,0,1-.614,0A10.27,10.27,0,0,1,8,15C8,12.515,9.791,11.5,12,11.5Z"/><path class="a" d="M23.5,23.5v-1a4,4,0,0,0-2.6-3.745l-2.118-.711a.993.993,0,0,1-.645-1.215A35.355,35.355,0,0,0,19.5,7.5c0-3.5-3.358-7-7.5-7S4.5,4,4.5,7.5a35.355,35.355,0,0,0,1.359,9.329.993.993,0,0,1-.645,1.215L3.1,18.755A4,4,0,0,0,.5,22.5v1"/><path class="a" d="M16,15l.733-5.866A3.006,3.006,0,0,0,14.6,5.879a9.08,9.08,0,0,0-5.192,0A3.006,3.006,0,0,0,7.267,9.134L8,15"/></svg>