<svg xmlns="http://www.w3.org/2000/svg" viewBox="0 0 24 24"><defs><style>.a{fill:none;stroke:#000;stroke-linecap:round;stroke-linejoin:round;}</style></defs><title>history-man-napoleon</title><path class="a" d="M10.5,15a1.967,1.967,0,0,0,1.358.5h.284A1.965,1.965,0,0,0,13.5,15"/><path class="a" d="M11,11.5a1.089,1.089,0,0,0-1-.5,1.089,1.089,0,0,0-1,.5"/><path class="a" d="M15,11.5a1.089,1.089,0,0,0-1-.5,1.089,1.089,0,0,0-1,.5"/><path class="a" d="M5.913,9.7c.03.249.068.568.106.8-.871.437-.6,2.4.477,2.889a1,1,0,0,1,.572.746C7.51,16.779,10.613,18.5,12,18.5s4.49-1.721,4.932-4.365a1,1,0,0,1,.572-.746c1.078-.491,1.348-2.452.477-2.889.038-.228.077-.547.106-.8"/><path class="a" d="M15.556,1.56l.69.966A5.3,5.3,0,0,0,19.9,4.706h0a3.359,3.359,0,0,1,2.8,2.367l.773,2.577a.559.559,0,0,1-.644.71A55.043,55.043,0,0,0,12,9.455a55.043,55.043,0,0,0-10.832.9.559.559,0,0,1-.644-.71L1.3,7.073A3.359,3.359,0,0,1,4.1,4.706h0a5.3,5.3,0,0,0,3.657-2.18l.69-.966A2.535,2.535,0,0,1,10.505.5H13.5A2.535,2.535,0,0,1,15.556,1.56Z"/><path class="a" d="M19.276,9.821l-.922-2.144a1.12,1.12,0,0,0-.674-.62l-2.442-.814a1.123,1.123,0,0,1-.647-.561l-.6-1.2a1.119,1.119,0,0,0-1-.619H11.013a1.119,1.119,0,0,0-1,.619l-.6,1.205a1.123,1.123,0,0,1-.647.561L6.32,7.057a1.12,1.12,0,0,0-.674.62L4.724,9.821"/><line class="a" x1="7" y1="19.445" x2="7" y2="23.5"/><path class="a" d="M4.5,22.75a.25.25,0,1,1-.25.25.25.25,0,0,1,.25-.25"/><line class="a" x1="17" y1="19.445" x2="17" y2="23.5"/><path class="a" d="M19.5,22.75a.25.25,0,1,0,.25.25.25.25,0,0,0-.25-.25"/><path class="a" d="M23.373,23.5A4,4,0,0,0,20.9,20.755L16.852,19.4a.5.5,0,0,0-.585.213,5,5,0,0,1-8.534,0,.5.5,0,0,0-.585-.213L3.1,20.755A4,4,0,0,0,.627,23.5"/></svg>