<svg xmlns="http://www.w3.org/2000/svg" viewBox="0 0 24 24"><defs><style>.a{fill:none;stroke:currentColor;stroke-linecap:round;stroke-linejoin:round;}</style></defs><title>heavy-equipment-lift </title><path class="a" d="M13.822,16.336a2,2,0,0,1-1.977-2.3l.9-6a2,2,0,0,1,1.978-1.7H18a.5.5,0,0,1,.5.5v3.74H23a.5.5,0,0,1,.5.5v3.26a2,2,0,0,1-2,2Z"/><path class="a" d="M23.5,20.336a2,2,0,0,1-2,2h-9a2,2,0,0,1,0-4h9A2,2,0,0,1,23.5,20.336Z"/><line class="a" x1="3.5" y1="4.55" x2="3.5" y2="13.336"/><circle class="a" cx="3.5" cy="16.336" r="3"/><path class="a" d="M10.106,10.212l-7.939-6.8A.991.991,0,0,1,3.3,1.8l9.689,5.537"/><path class="a" d="M13.5,20.086a.25.25,0,0,1,.25.25"/><path class="a" d="M13.252,20.336a.25.25,0,0,1,.25-.25"/><path class="a" d="M13.5,20.586a.25.25,0,0,1-.25-.25"/><path class="a" d="M13.752,20.336a.25.25,0,0,1-.25.25"/><path class="a" d="M17,20.086a.25.25,0,0,1,.25.25"/><path class="a" d="M16.752,20.336a.25.25,0,0,1,.25-.25"/><path class="a" d="M17,20.586a.25.25,0,0,1-.25-.25"/><path class="a" d="M17.252,20.336a.25.25,0,0,1-.25.25"/><path class="a" d="M20.5,20.086a.25.25,0,0,1,.25.25"/><path class="a" d="M20.252,20.336a.25.25,0,0,1,.25-.25"/><path class="a" d="M20.5,20.586a.25.25,0,0,1-.25-.25"/><path class="a" d="M20.752,20.336a.25.25,0,0,1-.25.25"/><line class="a" x1="18.5" y1="10.576" x2="12.271" y2="11.198"/></svg>