<svg xmlns="http://www.w3.org/2000/svg" viewBox="0 0 24 24"><title>professions-man-welder</title><path d="M21.98,19.368a6.833,6.833,0,0,0-3.041-1.213c-.719-.155-1.3-.316-2.19-.551a13.459,13.459,0,0,0,2.154-.688A.99.99,0,0,0,19.5,16V8.875h1a.75.75,0,0,0,0-1.5h-1l-.013,0A7.494,7.494,0,0,0,11.769.128,7.678,7.678,0,0,0,4.527,7.38c-.01,0-.017,0-.027,0h-1a.75.75,0,0,0,0,1.5h1V16a.99.99,0,0,0,.6.916,13.459,13.459,0,0,0,2.154.688c-1.566.414-1.462.393-2.19.551A6.833,6.833,0,0,0,2.02,19.368,4.849,4.849,0,0,0,.25,23.125a.75.75,0,1,0,1.5,0,3.334,3.334,0,0,1,1.211-2.584,3.241,3.241,0,0,1,.789-.448v3.037a.75.75,0,0,0,.75.75h15a.75.75,0,0,0,.75-.75V20.088a3.241,3.241,0,0,1,.789.448A3.334,3.334,0,0,1,22.25,23.12v0a.75.75,0,1,0,1.5,0A4.846,4.846,0,0,0,21.98,19.368ZM10.5,3.375h3a.75.75,0,0,1,0,1.5h-3a.75.75,0,0,1,0-1.5ZM7,8.125a1.5,1.5,0,0,1,1.5-1.5h7a1.5,1.5,0,0,1,1.5,1.5v2a1.5,1.5,0,0,1-1.5,1.5h-7a1.5,1.5,0,0,1-1.5-1.5Zm5,10a21.187,21.187,0,0,0,4.008-.364.746.746,0,0,0-.258.553v1.311a1.252,1.252,0,0,1-1.25,1.25h-5a1.252,1.252,0,0,1-1.25-1.25V18.314a.746.746,0,0,0-.258-.553A21.187,21.187,0,0,0,12,18.125Z"/></svg>