<?xml version="1.0" encoding="utf-8"?>
<!-- Generator: Adobe Illustrator 22.1.0, SVG Export Plug-In . SVG Version: 6.00 Build 0)  -->
<svg version="1.1" id="Regular" xmlns="http://www.w3.org/2000/svg" xmlns:xlink="http://www.w3.org/1999/xlink" x="0px" y="0px"
	 viewBox="0 0 24 24" style="enable-background:new 0 0 24 24;" xml:space="preserve">
<title>mouse</title>
<g>
	<path d="M7.882,14.998c-0.044,0-0.088-0.004-0.13-0.011c-0.513-0.06-0.923-0.47-0.983-0.982c-0.008-0.043-0.011-0.087-0.011-0.131
		s0.004-0.088,0.011-0.131c0.06-0.513,0.47-0.922,0.983-0.983c0.042-0.007,0.086-0.011,0.13-0.011s0.088,0.004,0.13,0.011
		c0.513,0.061,0.923,0.47,0.983,0.983c0.008,0.043,0.011,0.087,0.011,0.131s-0.004,0.088-0.011,0.131
		c-0.06,0.513-0.47,0.922-0.983,0.982C7.97,14.995,7.926,14.998,7.882,14.998z"/>
	<path d="M16.132,14.998c-0.044,0-0.088-0.004-0.13-0.011c-0.513-0.06-0.923-0.47-0.983-0.983c-0.007-0.042-0.011-0.086-0.011-0.13
		s0.004-0.088,0.011-0.131c0.06-0.513,0.47-0.923,0.983-0.983c0.042-0.008,0.086-0.011,0.131-0.011s0.088,0.004,0.131,0.011
		c0.513,0.06,0.923,0.47,0.983,0.983c0.008,0.042,0.011,0.086,0.011,0.131s-0.004,0.088-0.011,0.131
		c-0.06,0.513-0.47,0.923-0.983,0.983C16.22,14.995,16.176,14.998,16.132,14.998z"/>
	<path d="M20.257,23.998c-0.2,0-0.389-0.078-0.53-0.22l-2.087-2.087c-1.785,1.429-3.916,2.307-5.632,2.307
		c-1.69,0-3.815-0.885-5.614-2.326l-2.106,2.106c-0.142,0.142-0.33,0.22-0.53,0.22s-0.389-0.078-0.53-0.22
		c-0.292-0.292-0.292-0.768,0-1.061l2.054-2.054c-0.573-0.588-1.074-1.225-1.495-1.899l-2.847,0.711
		c-0.06,0.015-0.121,0.022-0.182,0.022c-0.345,0-0.644-0.234-0.727-0.568c-0.049-0.194-0.019-0.396,0.085-0.568
		c0.103-0.172,0.267-0.293,0.462-0.341l2.491-0.622c-0.537-1.239-0.809-2.549-0.809-3.9c0.003-1.202,0.269-2.401,0.771-3.492
		c-2.297-1.07-3.51-3.626-2.842-6.115c0.364-1.354,1.233-2.486,2.448-3.187C3.432,0.244,4.337,0,5.249,0
		c0.459,0,0.92,0.061,1.369,0.182c2.061,0.553,3.594,2.349,3.85,4.448c0.509-0.076,1.026-0.114,1.54-0.114
		c0.513,0,1.029,0.038,1.537,0.114c0.123-1.067,0.565-2.052,1.292-2.868c0.933-1.048,2.217-1.669,3.617-1.751
		c0.104-0.006,0.207-0.009,0.31-0.009c1.285,0,2.522,0.472,3.485,1.329c1.048,0.932,1.669,2.217,1.75,3.617
		c0.124,2.132-1.099,4.154-3.013,5.057c0.502,1.091,0.768,2.29,0.771,3.491c0,1.344-0.271,2.654-0.807,3.903l2.488,0.622
		c0.194,0.048,0.358,0.17,0.461,0.342c0.103,0.172,0.133,0.374,0.084,0.568c-0.083,0.334-0.383,0.568-0.727,0.568
		c-0.061,0-0.122-0.008-0.181-0.022l-2.835-0.708c-0.417,0.677-0.918,1.317-1.493,1.911l2.039,2.039
		c0.292,0.292,0.292,0.768,0,1.061C20.645,23.92,20.457,23.998,20.257,23.998z M5.258,1.502c-1.695,0-3.185,1.142-3.624,2.778
		c-0.536,1.997,0.653,4.058,2.65,4.594C4.51,8.935,4.697,9.1,4.785,9.317c0.088,0.217,0.068,0.466-0.052,0.667
		C4.098,11.046,3.76,12.262,3.757,13.5c0,2.817,2.574,8.233,7.5,8.934v-1.529c-1.109-0.281-1.98-1.173-2.232-2.293
		c-0.012-0.053-0.018-0.108-0.018-0.164c0-1.13,1.262-1.95,3-1.95s3,0.82,3,1.95c0,0.053-0.006,0.108-0.018,0.162
		c-0.253,1.125-1.13,2.011-2.232,2.293v1.523c2.828-0.502,7.5-3.74,7.5-8.928c-0.003-1.237-0.341-2.452-0.977-3.515
		c-0.12-0.2-0.139-0.449-0.052-0.666c0.088-0.217,0.275-0.383,0.501-0.443c1.709-0.459,2.874-2.073,2.772-3.839
		c-0.058-1-0.502-1.917-1.25-2.584c-0.688-0.612-1.571-0.949-2.487-0.949c-0.074,0-0.149,0.002-0.224,0.007
		c-1,0.058-1.918,0.502-2.584,1.25c-0.545,0.613-0.871,1.386-0.933,2.202c1.269,0.383,2.43,0.996,3.455,1.824
		C18.8,7.045,18.85,7.518,18.59,7.84c-0.143,0.177-0.355,0.279-0.584,0.279c-0.171,0-0.338-0.059-0.471-0.167
		c-1.549-1.25-3.513-1.939-5.529-1.939c-2.016,0-3.98,0.689-5.529,1.939c-0.132,0.107-0.3,0.167-0.471,0.167
		c-0.228,0-0.441-0.102-0.584-0.279C5.297,7.684,5.24,7.488,5.261,7.289C5.282,7.09,5.379,6.911,5.535,6.785
		c1.025-0.828,2.187-1.441,3.456-1.824C8.868,3.39,7.765,2.043,6.228,1.63C5.911,1.545,5.584,1.502,5.258,1.502z M10.53,18.433
		c0.171,0.512,0.606,0.91,1.136,1.029c0.113,0.026,0.228,0.038,0.342,0.038c0.677,0,1.27-0.435,1.477-1.072
		c-0.117-0.143-0.629-0.43-1.479-0.43C11.166,17.998,10.656,18.279,10.53,18.433z"/>
</g>
</svg>
