<svg id="Bold" xmlns="http://www.w3.org/2000/svg" viewBox="0 0 24 24"><title>underwear-briefs-male </title><path d="M23.5,6.5A.5.5,0,0,0,24,6V5.5A1.5,1.5,0,0,0,22.5,4H1.5A1.5,1.5,0,0,0,0,5.5V6a.5.5,0,0,0,.5.5Z"/><path d="M6.857,8.327A.249.249,0,0,0,6.619,8H.5a.5.5,0,0,0-.5.5v4.571a1.5,1.5,0,0,0,1.31,1.487A15.955,15.955,0,0,1,6.643,16.42a.249.249,0,0,0,.362-.286A13.889,13.889,0,0,1,6.857,8.327Z"/><path d="M17.381,8a.249.249,0,0,0-.238.327A13.889,13.889,0,0,1,17,16.134a.249.249,0,0,0,.362.286,15.952,15.952,0,0,1,5.334-1.862A1.5,1.5,0,0,0,24,13.071V8.5a.5.5,0,0,0-.5-.5Z"/><path d="M15.675,8.676A1,1,0,0,0,14.729,8H9.271a1,1,0,0,0-.946.676c-1.115,3.256-.069,7.9,1.758,10.859A1.494,1.494,0,0,0,11.168,20h1.664a1.494,1.494,0,0,0,1.085-.465C15.744,16.579,16.79,11.932,15.675,8.676Z"/></svg>