<svg xmlns="http://www.w3.org/2000/svg" viewBox="0 0 24 24"><title>style-three-pin-trailer</title><path d="M22.389,7.955a8.67,8.67,0,0,0-4.01-6.033,12.126,12.126,0,0,0-12.758,0,8.67,8.67,0,0,0-4.01,6.033A10.785,10.785,0,0,0,4.188,16.44a59.243,59.243,0,0,0,7.17,7.252,1,1,0,0,0,1.284,0,60.3,60.3,0,0,0,7.17-7.253A10.785,10.785,0,0,0,22.389,7.955ZM15,16a2,2,0,0,1-1.886-1.333A.5.5,0,0,1,13.585,14h2.83a.5.5,0,0,1,.471.667A2,2,0,0,1,15,16Zm3.5-3.5a.5.5,0,0,1-.5.5H5a.75.75,0,0,1,0-1.5H8.5V7.574a1.5,1.5,0,0,1,1.5-1.5h6a2.5,2.5,0,0,1,2.5,2.5Z"/><path d="M10.5,8.5H12a.5.5,0,0,0,0-1H10.5a.5.5,0,0,0,0,1Z"/><rect x="14" y="8.5" width="2.5" height="3" rx="0.5" ry="0.5"/></svg>