<?xml version="1.0" encoding="utf-8"?>
<!-- Generator: Adobe Illustrator 22.1.0, SVG Export Plug-In . SVG Version: 6.00 Build 0)  -->
<svg version="1.1" id="Regular" xmlns="http://www.w3.org/2000/svg" xmlns:xlink="http://www.w3.org/1999/xlink" x="0px" y="0px"
	 viewBox="0 0 24 24" style="enable-background:new 0 0 24 24;" xml:space="preserve">
<title>ticket-buy</title>
<g>
	<path d="M3,24c-0.377,0-0.697-0.282-0.744-0.657L1.588,18H0.75C0.336,18,0,17.664,0,17.25V15c0-2.481,2.019-4.5,4.5-4.5
		S9,12.519,9,15v2.25C9,17.664,8.664,18,8.25,18H7.412l-0.668,5.343C6.697,23.718,6.377,24,6,24H3z M5.338,22.5l0.668-5.343
		C6.053,16.782,6.373,16.5,6.75,16.5H7.5V15c0-1.654-1.346-3-3-3s-3,1.346-3,3v1.5h0.75c0.377,0,0.697,0.282,0.744,0.657L3.662,22.5
		H5.338z"/>
	<path d="M4.5,10.5c-2.068,0-3.75-1.682-3.75-3.75S2.432,3,4.5,3s3.75,1.682,3.75,3.75S6.568,10.5,4.5,10.5z M4.5,4.5
		c-1.241,0-2.25,1.009-2.25,2.25S3.259,9,4.5,9s2.25-1.009,2.25-2.25S5.741,4.5,4.5,4.5z"/>
	<path d="M12.75,24c-1.241,0-2.25-1.009-2.25-2.25V16.5c0-0.96,0.615-1.808,1.5-2.121V0.75C12,0.336,12.336,0,12.75,0
		s0.75,0.336,0.75,0.75v9h1.577c0.35-1.732,1.874-3,3.673-3s3.323,1.268,3.673,3h0.827c0.414,0,0.75,0.336,0.75,0.75
		s-0.336,0.75-0.75,0.75h-1.5c-0.414,0-0.75-0.336-0.75-0.75c0-1.241-1.009-2.25-2.25-2.25S16.5,9.259,16.5,10.5
		c0,0.414-0.336,0.75-0.75,0.75H13.5v3h9.75c0.414,0,0.75,0.336,0.75,0.75s-0.336,0.75-0.75,0.75h-10.5
		c-0.414,0-0.75,0.336-0.75,0.75v5.25c0,0.414,0.336,0.75,0.75,0.75h10.5c0.414,0,0.75,0.336,0.75,0.75S23.664,24,23.25,24H12.75z"
		/>
	<path d="M15.75,4.5C15.336,4.5,15,4.164,15,3.75S15.336,3,15.75,3h6c0.414,0,0.75,0.336,0.75,0.75S22.164,4.5,21.75,4.5H15.75z"/>
</g>
</svg>
