<?xml version="1.0" encoding="utf-8"?>
<!-- Generator: Adobe Illustrator 22.1.0, SVG Export Plug-In . SVG Version: 6.00 Build 0)  -->
<svg version="1.1" id="Regular" xmlns="http://www.w3.org/2000/svg" xmlns:xlink="http://www.w3.org/1999/xlink" x="0px" y="0px"
	 viewBox="0 0 24 24" style="enable-background:new 0 0 24 24;" xml:space="preserve">
<title>video-game-tetris</title>
<g>
	<path d="M19.5,15c-0.827,0-1.5-0.673-1.5-1.5v-3h-3c-0.827,0-1.5-0.673-1.5-1.5V1.5C13.5,0.673,14.173,0,15,0h3
		c0.827,0,1.5,0.673,1.5,1.5v3h3C23.327,4.5,24,5.173,24,6v7.5c0,0.827-0.673,1.5-1.5,1.5H19.5z M15,9h3c0.827,0,1.5,0.673,1.5,1.5
		v3h3V6h-3C18.673,6,18,5.327,18,4.5v-3h-3V9z"/>
	<path d="M1.5,24C0.673,24,0,23.327,0,22.5v-12C0,9.673,0.673,9,1.5,9h3C5.327,9,6,9.673,6,10.5v3h7.5c0.827,0,1.5,0.673,1.5,1.5v3
		h3c0.827,0,1.5,0.673,1.5,1.5v3c0,0.827-0.673,1.5-1.5,1.5H1.5z M18,22.5v-3h-3c-0.827,0-1.5-0.673-1.5-1.5v-3H6v3h3
		c0.827,0,1.5,0.673,1.5,1.5v3H18z M1.5,22.5H9v-3H6c-0.827,0-1.5-0.673-1.5-1.5v-7.5h-3V22.5z"/>
</g>
</svg>
